<svg width="19" height="19" viewBox="0 0 19 19" fill="none" xmlns="http://www.w3.org/2000/svg">
<g clip-path="url(#clip0_254_516)">
<path d="M17.4008 8.80999V9.49999C17.3998 11.1173 16.8761 12.691 15.9078 13.9864C14.9394 15.2817 13.5782 16.2293 12.0273 16.6879C10.4763 17.1465 8.8187 17.0914 7.30161 16.5309C5.78452 15.9704 4.48925 14.9346 3.60898 13.5778C2.72871 12.221 2.3106 10.616 2.41701 9.00223C2.52343 7.38841 3.14866 5.85223 4.19947 4.62279C5.25027 3.39335 6.67035 2.53653 8.2479 2.1801C9.82545 1.82367 11.476 1.98674 12.9533 2.64499" stroke="#CECECE" stroke-width="1.5" stroke-linecap="round" stroke-linejoin="round"/>
<path d="M17.4008 3.5L9.90076 11.0075L7.65076 8.7575" stroke="#CECECE" stroke-width="1.5" stroke-linecap="round" stroke-linejoin="round"/>
</g>
<defs>
<clipPath id="clip0_254_516">
<rect width="18" height="18" fill="white" transform="translate(0.900757 0.5)"/>
</clipPath>
</defs>
</svg>
