<svg width="193" height="380" viewBox="0 0 193 380" fill="none" xmlns="http://www.w3.org/2000/svg">
<g clip-path="url(#clip0_251_573)">
<path d="M110.491 213.141C114.188 201.045 125.341 162.492 148.638 167.222C131.525 156.512 133.254 147.494 145.841 110.189C134.308 129.024 128.646 159.043 100.973 151.729C111.384 156.564 113.306 158.089 115.502 163.468C120.234 175.06 113.166 198.142 110.491 213.141Z" fill="#747A4B" stroke="#747A4B" stroke-width="0.8" stroke-miterlimit="1.5" stroke-linecap="round" stroke-linejoin="round"/>
<path d="M112.09 132.272C110.921 129.697 109.296 127.329 108.055 124.791" stroke="#747A4B" stroke-width="0.8" stroke-miterlimit="1.5" stroke-linecap="round" stroke-linejoin="round"/>
<path d="M118.938 130.35C117.226 124.675 117.275 118.487 116.15 112.668" stroke="#747A4B" stroke-width="0.8" stroke-miterlimit="1.5" stroke-linecap="round" stroke-linejoin="round"/>
<path d="M136.315 187.869C136.777 190.94 137.409 194.018 138.072 197.053" stroke="#747A4B" stroke-width="0.8" stroke-miterlimit="1.5" stroke-linecap="round" stroke-linejoin="round"/>
<path d="M140.547 185.65C143.389 191.021 145.91 196.556 148.737 201.93" stroke="#747A4B" stroke-width="0.8" stroke-miterlimit="1.5" stroke-linecap="round" stroke-linejoin="round"/>
<path d="M153.829 145.375C156.788 144.2 159.704 143.072 162.722 142.058" stroke="#747A4B" stroke-width="0.8" stroke-miterlimit="1.5" stroke-linecap="round" stroke-linejoin="round"/>
<path d="M156.52 152.6C158.964 152.643 161.663 152.643 164.098 152.266" stroke="#747A4B" stroke-width="0.8" stroke-miterlimit="1.5" stroke-linecap="round" stroke-linejoin="round"/>
<path d="M91.252 165.664C87.2456 166.646 83.1456 167.313 79.1765 168.432" stroke="#747A4B" stroke-width="0.8" stroke-miterlimit="1.5" stroke-linecap="round" stroke-linejoin="round"/>
<path d="M93.2735 174.029C90.2893 175.277 87.26 176.334 84.2229 177.435" stroke="#747A4B" stroke-width="0.8" stroke-miterlimit="1.5" stroke-linecap="round" stroke-linejoin="round"/>
</g>
<path d="M56.011 54.4021C53.391 65.3821 51.4711 74.7021 51.1511 76.5621C50.9376 77.3712 50.8976 78.2163 51.031 79.0421C52.091 81.3021 65.791 85.7621 67.531 84.8821C69.271 84.0021 73.791 73.8221 79.051 63.3221C82.2729 63.425 85.4976 63.1904 88.671 62.6221C92.0129 62.009 95.2645 60.981 98.3511 59.5621C105.111 56.4421 112.511 43.0821 113.511 36.3621C114.261 29.0661 112.716 21.7181 109.091 15.3421C92.3111 -13.7579 43.091 1.90208 47.091 34.2221C48.2329 41.6173 51.311 48.5795 56.011 54.4021ZM68.2111 78.2221C68.2111 78.5421 67.851 78.5021 66.211 78.2221C62.8561 77.8006 59.6078 76.7632 56.631 75.1621C55.231 74.4021 54.8511 74.2421 54.9911 73.9021C55.1311 73.5621 55.431 73.6821 57.591 74.2821C57.791 74.2821 63.991 76.2821 65.771 76.9021C68.071 77.9421 68.2111 77.9421 68.2111 78.2221ZM67.8511 45.6821C69.986 45.7926 72.1143 45.3523 74.0311 44.4021C75.8111 45.2646 77.7376 45.7872 79.7111 45.9421C76.3511 52.2021 69.531 64.9621 67.331 71.7621L58.851 69.4221C60.851 64.5021 65.2711 52.9821 67.8111 45.6821H67.8511ZM67.151 44.0221C65.6576 43.7966 64.2794 43.0875 63.2292 42.0039C62.1776 40.9199 61.511 39.5214 61.331 38.0221C60.771 34.0221 63.331 29.5421 67.191 30.6021C69.611 31.2621 69.911 33.1821 69.4911 35.6021C69.1311 37.3621 67.831 41.7821 67.111 43.9421L67.151 44.0221ZM72.5911 39.2221C72.8045 37.9133 73.2962 36.6653 74.0311 35.5621C74.3809 34.9606 74.8929 34.4693 75.5078 34.1443C76.1227 33.8188 76.8161 33.6726 77.511 33.7221C78.991 34.1621 79.6311 36.9621 78.4111 38.7221C77.2376 40.2781 75.7794 41.5952 74.111 42.6021C73.5361 42.2654 73.0794 41.761 72.8009 41.1566C72.5227 40.5526 72.4343 39.8773 72.551 39.2221H72.5911ZM54.2111 13.8021C63.1711 3.02208 80.0311 -1.25792 92.2111 3.18208C98.8278 5.45339 104.393 10.0523 107.871 16.1221C111.319 22.1893 112.794 29.1788 112.091 36.1221C111.171 42.3421 104.091 55.2621 97.8711 58.1221C92.1845 60.7163 85.9794 61.9748 79.7311 61.8021C79.0511 61.8021 78.3311 61.8021 78.0711 62.2821C76.8911 64.6821 74.7311 69.3221 72.6111 73.6821C71.146 72.9752 69.6292 72.3864 68.0711 71.9221C70.3911 65.2821 77.711 52.2421 81.191 45.9221C84.206 46.1803 87.2376 45.657 89.9911 44.4021C90.7343 44.0104 91.3511 43.4148 91.7692 42.6846C92.186 41.9548 92.3878 41.121 92.3478 40.281C92.3078 39.4413 92.0278 38.6304 91.5445 37.9432C91.0594 37.2563 90.3892 36.7213 89.6111 36.4021C86.5111 34.8821 83.7311 38.5221 82.1111 41.5821C81.6711 42.3821 81.171 43.3221 80.611 44.3821C78.9929 44.2759 77.3976 43.9461 75.8711 43.4021C77.3911 42.333 78.7409 41.0384 79.871 39.5621C80.5045 38.6057 80.8245 37.4766 80.7892 36.3304C80.7529 35.1839 80.3627 34.077 79.671 33.1621C79.1278 32.5312 78.3729 32.1199 77.5478 32.0057C76.7227 31.8915 75.8845 32.0824 75.1911 32.5421C73.7892 33.4028 72.6678 34.6493 71.9576 36.1323C71.2492 37.6152 70.9827 39.2715 71.191 40.9021C71.4078 41.8224 71.9045 42.6537 72.6111 43.2821C71.2994 43.8254 69.891 44.0977 68.471 44.0821C69.271 41.7221 70.5711 37.4621 70.9111 35.7221C71.1245 34.7301 71.1711 33.7097 71.051 32.7021C70.8961 31.8373 70.4943 31.0355 69.8943 30.3934C69.2961 29.7508 68.5227 29.2959 67.6711 29.0821C62.8111 27.7021 59.231 33.0821 59.931 38.1021C60.1278 39.901 60.9009 41.5883 62.1329 42.9141C63.3645 44.2399 64.991 45.1334 66.771 45.4621C64.211 52.6621 60.211 64.2821 58.211 69.2421L53.811 68.1021C56.631 53.9421 56.971 54.2821 56.571 54.1021C52.0259 48.3083 49.1194 41.4017 48.151 34.1021C47.6794 30.4824 47.9761 26.8043 49.0194 23.3069C50.0627 19.8093 51.8329 16.5708 54.2111 13.8021ZM81.971 44.5021C83.371 41.9621 86.171 36.4021 88.891 37.7621C89.4343 37.9813 89.9092 38.345 90.2609 38.8137C90.6143 39.2824 90.8311 39.8384 90.8911 40.4221C90.8511 43.9421 85.3711 44.5621 81.8911 44.5021H81.971ZM158.531 53.3221C160.941 51.9046 163.788 51.4206 166.531 51.9621C169.545 52.0159 172.423 53.2206 174.576 55.3294C176.731 57.4381 177.993 60.2904 178.109 63.3021C176.298 62.2508 174.179 61.8552 172.111 62.1821C167.091 62.6221 160.531 65.3421 161.411 70.1821C162.131 74.1821 167.411 73.6421 171.411 72.5621C175.411 71.4821 178.589 69.5221 179.411 65.6621C184.269 69.2021 185.411 75.4021 185.611 81.4621C185.611 81.5468 185.644 81.6283 185.706 81.6883C185.764 81.7483 185.847 81.7821 185.931 81.7821C186.015 81.7821 186.098 81.7483 186.157 81.6883C186.218 81.6283 186.251 81.5468 186.251 81.4621C186.389 74.6821 185.171 68.0421 179.629 64.1821C179.687 62.4457 179.389 60.7159 178.76 59.097C178.131 57.4784 177.175 56.0046 175.96 54.7646C174.743 53.525 173.286 52.5454 171.679 51.8846C170.073 51.2243 168.348 50.8966 166.611 50.9221C163.834 50.5166 161.005 51.097 158.611 52.5621C157.871 52.9221 158.211 53.4621 158.531 53.3221ZM176.771 67.6621C174.511 70.6221 168.111 72.1621 165.151 71.6621C164.051 71.4821 163.151 71.0221 162.911 69.8821C162.191 65.8821 169.091 63.7021 173.211 63.5621C174.888 63.4334 176.56 63.8624 177.971 64.7821C177.818 65.8279 177.407 66.8184 176.771 67.6621ZM149.371 29.9421C151.511 27.3021 150.071 22.7021 144.091 22.6821C141.771 22.6821 140.651 25.0421 140.811 27.3021C141.171 32.6821 147.231 32.5221 149.371 29.9421ZM142.211 27.2021C142.211 25.8821 142.831 24.1621 144.211 24.1821C147.431 24.1821 148.911 25.6821 148.911 27.3421C148.831 31.1221 141.951 33.0821 142.211 27.2021ZM141.391 253.942C123.811 246.922 115.651 280.902 101.291 310.102C101.199 311.329 101.241 312.564 101.411 313.782C101.411 316.842 101.751 337.102 103.531 339.402C104.011 340.322 106.031 339.402 106.971 338.822C114.954 333.881 122.478 328.23 129.451 321.942C129.511 321.874 129.554 321.796 129.583 321.709C129.609 321.622 129.619 321.532 129.611 321.442C133.331 316.142 147.271 288.542 150.651 274.702C153.011 264.902 150.671 257.602 141.391 253.942ZM147.671 279.342C138.259 278.136 129.159 275.164 120.851 270.582C125.531 261.722 131.311 251.622 140.851 255.422C151.471 259.642 151.251 268.382 147.671 279.282V279.342ZM114.391 331.342C113.776 330.827 113.106 330.384 112.391 330.022C109.688 328.649 106.566 328.347 103.651 329.182C103.451 326.802 102.311 311.322 102.311 311.182C117.291 316.662 112.671 314.282 127.511 321.662C125.951 323.142 120.091 327.242 114.391 331.302V331.342ZM124.711 273.462C126.661 274.527 128.665 275.496 130.711 276.362C126.126 283.562 122.076 291.09 118.591 298.882C115.231 305.902 115.351 305.862 111.931 313.522C109.931 312.882 107.931 312.282 105.931 311.682C108.091 307.382 123.451 275.942 124.711 273.422V273.462ZM112.711 313.722C119.211 302.062 125.831 287.562 131.511 276.622C133.511 277.462 135.511 278.142 137.511 278.742C136.451 280.742 133.351 286.062 132.531 287.602C131.711 289.142 123.491 305.342 122.911 306.582C121.991 308.582 119.471 314.162 118.691 315.942C116.651 315.042 114.691 314.362 112.631 313.682L112.711 313.722ZM119.411 316.202C120.631 313.982 125.651 304.662 126.271 303.462C127.211 301.602 137.691 280.182 138.271 278.942C140.111 279.462 142.051 279.902 143.291 280.142C139.631 290.142 129.091 309.402 125.291 318.902C121.831 317.282 121.051 316.882 119.331 316.162L119.411 316.202ZM120.631 271.162L124.211 273.162C116.996 285.449 110.713 298.257 105.411 311.482L102.411 310.562C114.031 285.802 114.571 282.562 120.551 271.122L120.631 271.162ZM128.871 320.642L125.851 319.202C129.111 312.802 139.311 296.382 143.971 280.282C145.091 280.482 146.191 280.662 147.251 280.802C142.111 294.516 135.941 307.821 128.791 320.602L128.871 320.642ZM66.211 333.622C67.0078 332.962 67.5776 332.069 67.8394 331.067C68.1009 330.065 68.0427 329.007 67.6711 328.042C67.5009 326.649 66.8627 325.354 65.8594 324.372C64.8561 323.39 63.5478 322.779 62.151 322.641C60.7543 322.501 59.351 322.84 58.1743 323.604C56.9961 324.367 56.1129 325.51 55.671 326.842C53.111 325.182 50.331 323.422 47.671 321.742C49.671 319.082 55.5511 320.262 56.1511 322.442C56.1645 322.527 56.211 322.604 56.2794 322.654C56.3492 322.704 56.4361 322.725 56.5209 322.712C56.606 322.699 56.6809 322.652 56.7329 322.584C56.7827 322.514 56.8045 322.427 56.791 322.342C56.491 318.862 49.251 316.822 46.331 320.922C43.751 319.342 40.551 317.422 37.871 315.962C40.171 313.962 45.311 315.082 45.871 317.162C45.8976 317.234 45.9478 317.292 46.0143 317.33C46.0794 317.367 46.1576 317.38 46.231 317.365C46.306 317.35 46.3729 317.31 46.4209 317.25C46.4678 317.192 46.4929 317.117 46.4911 317.042C46.2311 313.802 39.531 311.622 36.491 315.182C35.2176 314.469 33.8776 313.879 32.491 313.422C32.2376 313.317 31.9594 313.287 31.6892 313.337C31.4194 313.387 31.1692 313.514 30.971 313.702C25.911 320.002 8.85103 336.362 0.971032 338.262C0.77285 338.292 0.585935 338.374 0.429207 338.499C0.272844 338.624 0.152854 338.787 0.0793996 338.974C0.00594509 339.161 -0.0173258 339.364 0.0128561 339.561C0.0444924 339.759 0.12594 339.945 0.251031 340.102C1.98085 341.859 3.96267 343.349 6.13104 344.522C4.13104 346.522 2.57103 348.322 1.41103 349.622C0.811034 350.262 0.491025 362.502 1.01102 365.204C1.08775 365.466 1.2594 365.695 1.49104 365.844C4.01104 367.564 36.471 381.604 39.791 379.724C42.011 378.462 68.5111 350.882 68.9311 350.042C69.5711 348.722 69.351 339.922 69.311 336.402C69.151 335.342 67.171 334.202 66.211 333.622ZM2.21104 360.044V355.582C10.511 359.582 29.511 367.742 36.711 370.022C38.551 370.622 38.711 370.542 39.671 370.022C45.171 366.502 64.5911 344.622 68.1511 341.282V345.502C57.3511 356.324 39.011 375.284 38.671 374.204C36.691 374.084 3.93104 360.844 2.21104 360.044ZM65.711 326.882C66.4292 328.094 66.8161 329.474 66.831 330.882C66.8245 331.33 66.7143 331.77 66.5092 332.17C66.3045 332.569 66.011 332.916 65.651 333.182C63.971 332.062 60.791 329.982 57.031 327.542C59.091 323.482 63.671 323.422 65.631 326.882H65.711ZM1.71104 339.682C10.231 337.162 26.411 321.562 31.851 314.802C33.1594 315.167 34.4227 315.684 35.611 316.342C33.611 320.062 35.751 324.142 36.511 323.562C36.931 323.242 36.171 323.122 36.051 321.162C35.9994 319.73 36.3245 318.31 36.991 317.042C39.751 318.482 42.991 320.362 45.731 321.942C44.051 325.682 46.071 329.382 46.771 328.842C47.471 328.302 46.451 328.422 46.331 326.462C46.2827 325.177 46.5278 323.897 47.051 322.722C49.871 324.382 52.751 326.102 55.391 327.722C54.9845 328.719 54.8227 329.799 54.9194 330.87C55.0176 331.942 55.3711 332.976 55.9511 333.882C55.9776 333.916 56.0092 333.945 56.0478 333.967C56.0845 333.987 56.1259 334.002 56.1677 334.007C56.211 334.012 56.2543 334.01 56.2961 333.999C56.3376 333.987 56.3761 333.969 56.411 333.942C56.4445 333.915 56.4743 333.884 56.4943 333.845C56.5161 333.809 56.531 333.767 56.5361 333.724C56.5409 333.682 56.5394 333.639 56.5278 333.597C56.5161 333.556 56.4976 333.516 56.471 333.482C56.111 332.687 55.9343 331.822 55.9511 330.95C55.9678 330.079 56.1794 329.222 56.571 328.442C61.231 331.282 64.9911 333.662 66.1511 334.442C65.9311 334.642 45.071 353.202 37.971 358.724C33.311 357.502 8.85104 345.362 1.71104 339.682ZM2.47103 350.822C11.531 354.822 32.111 364.102 36.851 365.004C37.671 365.164 37.991 365.222 39.551 363.982C46.211 358.644 67.8711 335.982 68.0711 336.222C68.0809 336.282 68.0809 336.342 68.0711 336.402V340.402C63.6111 343.982 38.8111 370.022 38.411 368.782C36.411 368.782 3.91105 355.524 2.25105 354.782C2.21105 353.942 2.39103 351.702 2.47103 350.822ZM38.891 378.382C36.891 379.524 6.43104 367.142 2.35104 364.622C2.19758 363.346 2.12449 362.066 2.13104 360.782C10.891 365.102 36.371 375.862 38.711 375.764C42.131 375.582 66.3111 348.362 68.0311 346.462C68.0511 347.484 67.9492 348.504 67.731 349.502C67.391 350.162 40.211 377.644 38.891 378.382ZM177.931 225.542C177.8 225.55 177.673 225.584 177.553 225.641C177.437 225.699 177.331 225.779 177.247 225.879C177.16 225.977 177.095 226.092 177.055 226.216C177.015 226.341 177 226.472 177.011 226.602C177.131 228.442 177.251 230.422 177.251 232.342C177.251 232.607 177.357 232.862 177.546 233.049C177.731 233.237 177.986 233.342 178.251 233.342C178.517 233.342 178.771 233.237 178.957 233.049C179.146 232.862 179.251 232.607 179.251 232.342C179.251 230.342 179.131 228.342 178.989 226.462C178.982 226.332 178.949 226.204 178.891 226.087C178.833 225.969 178.753 225.864 178.655 225.779C178.557 225.692 178.44 225.627 178.317 225.587C178.193 225.547 178.062 225.53 177.931 225.542ZM171.731 219.622C169.331 219.622 167.311 219.762 165.291 219.782C165.026 219.782 164.771 219.887 164.585 220.076C164.396 220.262 164.291 220.517 164.291 220.782C164.291 221.047 164.396 221.302 164.585 221.489C164.771 221.677 165.026 221.782 165.291 221.782C167.451 221.782 169.691 221.782 171.851 221.622C172.116 221.605 172.365 221.485 172.541 221.287C172.716 221.089 172.806 220.827 172.791 220.562C172.774 220.297 172.654 220.049 172.456 219.872C172.256 219.696 171.996 219.605 171.731 219.622ZM178.709 215.002C178.709 213.002 178.589 211.002 178.451 209.122C178.433 208.857 178.309 208.61 178.109 208.436C177.909 208.261 177.647 208.174 177.382 208.192C177.117 208.21 176.869 208.334 176.695 208.534C176.52 208.736 176.433 208.997 176.451 209.262C176.571 211.102 176.691 213.082 176.691 215.002C176.691 215.267 176.797 215.522 176.986 215.709C177.171 215.897 177.426 216.002 177.691 216.002C177.957 216.002 178.215 215.897 178.404 215.71C178.597 215.524 178.706 215.269 178.709 215.002ZM191.131 219.362C189.131 219.462 186.909 219.522 184.691 219.522C184.56 219.517 184.429 219.539 184.302 219.585C184.178 219.632 184.069 219.704 183.971 219.794C183.877 219.885 183.8 219.996 183.749 220.117C183.698 220.239 183.669 220.37 183.669 220.502C183.669 220.769 183.775 221.025 183.964 221.217C184.149 221.407 184.404 221.517 184.669 221.522C186.949 221.522 188.789 221.522 191.211 221.362C191.342 221.357 191.469 221.325 191.589 221.27C191.709 221.216 191.818 221.137 191.906 221.041C191.997 220.944 192.066 220.832 192.109 220.707C192.157 220.584 192.175 220.454 192.171 220.322C192.146 220.062 192.026 219.821 191.833 219.644C191.644 219.465 191.393 219.365 191.131 219.362Z" fill="#747A4B"/>
<defs>
<clipPath id="clip0_251_573">
<rect width="114" height="114" fill="white" transform="translate(81.5054 90) rotate(15)"/>
</clipPath>
</defs>
</svg>
