<svg width="105" height="71" viewBox="0 0 105 71" fill="none" xmlns="http://www.w3.org/2000/svg">
<path d="M29.2642 40.9172V29.3381H31.5474L35.2005 36.0246L38.8699 29.3381H41.0716V40.9172H38.7231V33.5946L36.0322 38.5035H34.3035L31.6126 33.5946V40.9172H29.2642ZM46.9184 41.1618C46.1356 41.1618 45.4507 40.9987 44.8635 40.6725C44.2873 40.3355 43.8361 39.8626 43.5099 39.2537C43.1946 38.634 43.037 37.9055 43.037 37.0684V32.3063H45.3202V37.1173C45.3202 37.737 45.467 38.2263 45.7605 38.5851C46.0541 38.933 46.4509 39.1069 46.951 39.1069C47.4512 39.1069 47.848 38.933 48.1416 38.5851C48.4351 38.2263 48.5819 37.737 48.5819 37.1173V32.3063H50.8651V37.0684C50.8651 37.6881 50.7727 38.248 50.5879 38.7481C50.403 39.2483 50.1366 39.6777 49.7887 40.0365C49.4408 40.3953 49.0222 40.6725 48.533 40.8682C48.0546 41.064 47.5164 41.1618 46.9184 41.1618ZM54.8085 40.9172L51.9545 32.3063H54.3029L55.9174 38.1284L57.6625 32.3063H59.6358L61.3808 38.1447L63.028 32.3063H65.2949L62.4409 40.9172H60.3371L58.6084 35.095L56.8796 40.9172H54.8085ZM68.7407 41.1618C68.2949 41.1618 67.8872 41.0966 67.5175 40.9661C67.1479 40.8356 66.8217 40.6508 66.539 40.4116C66.2672 40.1615 66.0552 39.8734 65.903 39.5473C65.7508 39.2211 65.6747 38.8623 65.6747 38.4709C65.6747 37.9273 65.8214 37.4489 66.115 37.0357C66.4086 36.6226 66.8217 36.3019 67.3545 36.0735C67.8872 35.8343 68.5069 35.7147 69.2136 35.7147C69.5724 35.7147 69.9095 35.7474 70.2248 35.8126C70.5509 35.8778 70.8662 35.9702 71.1707 36.0898V35.5843C71.1707 35.095 71.0293 34.6982 70.7466 34.3938C70.4748 34.0893 70.0997 33.9371 69.6213 33.9371C69.2626 33.9371 68.9364 34.0295 68.6428 34.2144C68.3493 34.3883 68.1427 34.6384 68.0231 34.9646L65.9845 34.5568C66.1041 34.0567 66.3379 33.6218 66.6858 33.2522C67.0446 32.8716 67.4795 32.5781 67.9905 32.3715C68.5015 32.1649 69.056 32.0616 69.654 32.0616C70.2084 32.0616 70.714 32.1486 71.1707 32.3226C71.6273 32.4965 72.0187 32.7466 72.3449 33.0728C72.6819 33.3989 72.9374 33.7849 73.1114 34.2307C73.2962 34.6656 73.3886 35.1548 73.3886 35.6984V40.9172H71.35L71.2848 39.906C71.0565 40.2757 70.7249 40.5801 70.29 40.8193C69.8551 41.0476 69.3387 41.1618 68.7407 41.1618ZM67.9253 38.3567C67.9253 38.6612 68.0503 38.9112 68.3003 39.1069C68.5504 39.3026 68.882 39.4005 69.2952 39.4005C69.654 39.4005 69.9747 39.3244 70.2574 39.1722C70.5401 39.0199 70.7629 38.8134 70.926 38.5524C71.0891 38.2806 71.1707 37.9816 71.1707 37.6555V37.5739C70.9315 37.4761 70.676 37.4 70.4042 37.3456C70.1323 37.2804 69.8605 37.2477 69.5887 37.2477C69.0777 37.2477 68.67 37.351 68.3656 37.5576C68.072 37.7533 67.9253 38.0197 67.9253 38.3567Z" fill="white"/>
<path d="M96.4111 24.1622C95.668 21.5794 93.7465 19.4618 90.8955 17.8461C88.0441 16.2302 84.2673 15.1192 79.8255 14.5499C70.942 13.4113 59.413 14.4412 47.3458 17.9127C35.2786 21.3841 24.9648 26.638 18.0444 32.323C14.584 35.1656 11.975 38.1136 10.4181 40.9977C8.86148 43.8814 8.35898 46.6964 9.10199 49.2792C9.845 51.862 11.7665 53.9796 14.6175 55.5953C17.4689 57.2112 21.2457 58.3222 25.6876 58.8915C34.571 60.0301 46.1 59.0002 58.1672 55.5287C70.2344 52.0573 80.5482 46.8034 87.4687 41.1184C90.929 38.2758 93.5381 35.3278 95.0949 32.4437C96.6516 29.56 97.1541 26.745 96.4111 24.1622Z" stroke="#958DC4" stroke-width="0.14826"/>
<path d="M93.62 21.5281C92.877 18.9453 90.9555 16.8276 88.1045 15.2119C85.2531 13.596 81.4763 12.485 77.0345 11.9157C68.151 10.7772 56.622 11.807 44.5548 15.2785C32.4876 18.75 22.1738 24.0038 15.2534 29.6888C11.793 32.5314 9.18395 35.4795 7.6271 38.3635C6.07047 41.2472 5.56796 44.0622 6.31097 46.645C7.05398 49.2278 8.97553 51.3455 11.8265 52.9612C14.6779 54.5771 18.4547 55.6881 22.8966 56.2574C31.78 57.3959 43.309 56.3661 55.3762 52.8946C67.4434 49.4231 77.7572 44.1693 84.6777 38.4843C88.138 35.6417 90.7471 32.6936 92.3039 29.8096C93.8605 26.9259 94.363 24.1109 93.62 21.5281Z" stroke="#958DC4" stroke-width="0.14826"/>
<path d="M92.8114 20.1323C92.0684 17.5495 90.1469 15.4319 87.2959 13.8162C84.4445 12.2003 80.6677 11.0893 76.2259 10.52C67.3424 9.38142 55.8134 10.4113 43.7462 13.8828C31.679 17.3542 21.3652 22.6081 14.4448 28.2931C10.9844 31.1357 8.37536 34.0837 6.8185 36.9678C5.26187 39.8515 4.75937 42.6665 5.50238 45.2493C6.24539 47.8321 8.16693 49.9497 11.0179 51.5654C13.8693 53.1813 17.6461 54.2923 22.088 54.8616C30.9714 56.0002 42.5004 54.9703 54.5676 51.4988C66.6348 48.0274 76.9486 42.7735 83.8691 37.0885C87.3294 34.2459 89.9385 31.2979 91.4953 28.4138C93.0519 25.5301 93.5545 22.7151 92.8114 20.1323Z" stroke="#958DC4" stroke-width="0.14826"/>
<path d="M94.8271 22.8989C94.0841 20.3161 92.1625 18.1985 89.3115 16.5828C86.4601 14.9669 82.6833 13.8559 78.2415 13.2866C69.358 12.148 57.8291 13.1779 45.7619 16.6494C33.6947 20.1208 23.3808 25.3747 16.4604 31.0597C13.0001 33.9023 10.391 36.8503 8.83413 39.7344C7.2775 42.6181 6.77499 45.4331 7.518 48.0159C8.26102 50.5987 10.1826 52.7163 13.0336 54.332C15.885 55.9479 19.6617 57.0589 24.1036 57.6282C32.987 58.7668 44.516 57.7369 56.5832 54.2654C68.6504 50.794 78.9642 45.5401 85.8847 39.8551C89.345 37.0125 91.9541 34.0645 93.5109 31.1804C95.0676 28.2967 95.5701 25.4817 94.8271 22.8989Z" stroke="#958DC4" stroke-width="0.14826"/>
<path d="M98.8981 25.1644C98.1551 22.5816 96.2336 20.4639 93.3826 18.8482C90.5312 17.2323 86.7544 16.1213 82.3125 15.552C73.4291 14.4135 61.9001 15.4433 49.8329 18.9148C37.7657 22.3863 27.4519 27.6401 20.5314 33.3251C17.0711 36.1677 14.462 39.1158 12.9052 41.9998C11.3485 44.8835 10.846 47.6985 11.589 50.2813C12.3321 52.8641 14.2536 54.9818 17.1046 56.5975C19.956 58.2134 23.7328 59.3244 28.1746 59.8937C37.0581 61.0322 48.5871 60.0024 60.6543 56.5309C72.7215 53.0594 83.0353 47.8056 89.9557 42.1206C93.4161 39.278 96.0251 36.3299 97.582 33.4458C99.1386 30.5622 99.6411 27.7471 98.8981 25.1644Z" stroke="#958DC4" stroke-width="0.14826"/>
</svg>
