<svg width="92" height="118" viewBox="0 0 92 118" fill="none" xmlns="http://www.w3.org/2000/svg">
<path fill-rule="evenodd" clip-rule="evenodd" d="M75.5935 116.914C76.4379 116.914 77.1641 117.158 77.1641 117.453C77.1641 117.747 76.4632 118 75.5935 118C74.7238 118 74.0315 117.756 74.0315 117.453C74.0315 117.15 74.7323 116.914 75.5935 116.914ZM21.8331 95.4238C21.8331 95.6342 21.7065 97.2252 21.774 99.5485C21.774 99.8599 21.8331 100.921 21.8331 100.921C21.8331 100.921 21.9345 100.979 21.9345 100.921C21.9345 100.862 21.9851 99.8599 21.9936 99.5485C22.0442 97.6124 21.9345 95.3396 21.9345 95.4238C21.9345 95.4105 21.9292 95.3979 21.9196 95.388C21.91 95.379 21.8971 95.3733 21.8838 95.3733C21.8703 95.3733 21.8575 95.379 21.848 95.388C21.8385 95.3979 21.8331 95.4105 21.8331 95.4238ZM57.0007 3.44396C58.0561 3.73016 59.9222 4.32782 60.5977 5.19484C60.6222 5.22662 60.6356 5.26541 60.6356 5.3054C60.6356 5.34538 60.6238 5.38439 60.5998 5.41657C60.5759 5.44877 60.5421 5.47248 60.504 5.48405C60.4653 5.4957 60.4246 5.49466 60.3866 5.48104C57.0091 4.10896 51.6305 5.85983 48.2195 7.274C46.8685 7.83798 54.9742 -1.27837 60.8003 0.152638C60.8404 0.164744 60.8749 0.189277 60.9003 0.222596C60.9248 0.255991 60.9382 0.29632 60.9382 0.337842C60.9382 0.379303 60.9248 0.419708 60.9003 0.453027C60.8749 0.486422 60.8404 0.510894 60.8003 0.52303C59.476 0.832663 58.1757 1.23489 56.9078 1.72676C57.8788 1.76885 60.1164 1.91195 60.8679 2.56852C60.8981 2.59421 60.9193 2.62794 60.9305 2.66576C60.9411 2.7035 60.9411 2.74355 60.9291 2.78108C60.9171 2.81853 60.8953 2.85185 60.8651 2.8769C60.8341 2.90194 60.7975 2.91766 60.7581 2.92207C59.4978 3.0313 58.2433 3.20547 57.0007 3.44396ZM59.804 0.388348C58.1455 0.382318 56.5145 0.811971 55.0755 1.63416C52.501 2.996 50.2086 4.83268 48.3208 7.04672C51.5545 5.64939 56.1563 4.06687 59.6098 4.85813C58.5205 4.30341 57.3624 3.89579 56.1648 3.64599C56.1212 3.6368 56.0825 3.61296 56.0542 3.57845C56.0261 3.54399 56.0106 3.50093 56.0106 3.45659C56.0106 3.41219 56.0261 3.3692 56.0542 3.33468C56.0825 3.30023 56.1212 3.27639 56.1648 3.26719C57.4517 2.92158 58.7646 2.68504 60.091 2.56011C58.7964 2.25568 57.47 2.1031 56.1394 2.10555C56.0964 2.10675 56.0536 2.09349 56.0191 2.06789C55.9839 2.04222 55.9586 2.00567 55.9466 1.96407C55.9354 1.9224 55.9382 1.87808 55.9544 1.83816C55.9713 1.79817 56.0008 1.76493 56.0381 1.74359C57.2385 1.15267 58.5023 0.698057 59.804 0.388348ZM2.78431 70.8021C1.94455 70.9115 1.09804 70.9628 0.251218 70.9536C0.208232 70.955 0.16586 70.9425 0.131625 70.9164C0.0973902 70.8906 0.0731347 70.8534 0.0631559 70.8113C0.053177 70.7698 0.0580894 70.7257 0.0769724 70.6872C0.0958555 70.6485 0.127635 70.6177 0.166782 70.6001C1.21379 70.0361 3.67933 69.4805 4.94587 68.6051L8.07846 66.5175C8.08475 66.5105 8.09258 66.505 8.10133 66.5007C8.11008 66.4966 8.1196 66.4944 8.12912 66.4944C8.13879 66.4944 8.14816 66.4966 8.15691 66.5007C8.16566 66.505 8.17349 66.5105 8.17978 66.5175C8.27266 66.627 8.07846 66.6354 7.02301 68.0243C6.32234 68.8843 5.75324 69.8433 5.33428 70.8695C4.88155 71.9428 4.48409 73.0385 4.14373 74.1523C4.14373 74.4049 3.53579 74.5901 3.70466 73.2096C3.77467 72.6947 3.87031 72.1834 3.99174 71.6776C3.11576 72.3083 2.19279 72.8707 1.23068 73.3611C1.19598 73.3808 1.15607 73.3899 1.11631 73.3863C1.07654 73.3822 1.03878 73.3667 1.00838 73.3407C0.97783 73.3149 0.956184 73.2804 0.946052 73.2419C0.93592 73.2033 0.938068 73.1626 0.952039 73.1254C1.38389 72.2261 2.00949 71.4328 2.78431 70.8021ZM7.5634 67.0731C3.42602 69.9772 5.27518 68.925 1.14624 70.5664C1.93641 70.5643 2.72182 70.4458 3.47668 70.2129L3.56956 70.1371C3.75532 69.994 4.08462 70.2802 3.72155 70.5159C2.91004 71.1521 2.19341 71.9007 1.59375 72.7382C2.52885 72.2613 3.40453 71.6762 4.20284 70.9957C4.23262 70.9614 4.27346 70.9382 4.31844 70.9313C4.36342 70.9235 4.40947 70.9319 4.44878 70.955C4.48792 70.9783 4.51786 71.0147 4.53306 71.0576C4.54826 71.1003 4.5481 71.1466 4.53214 71.1893C4.35743 71.8242 4.21665 72.4674 4.10996 73.117C4.77746 70.8632 5.95942 68.7946 7.5634 67.0731ZM8.13757 63.142C9.56945 60.8292 11.6151 58.9559 14.0481 57.7295C17.3242 56.189 18.5232 57.8305 17.0371 60.7767C15.7717 63.1303 13.9627 65.1497 11.7599 66.669C12.008 67.5325 12.1078 68.4318 12.0554 69.329C11.8359 70.1708 7.70694 71.585 7.14122 71.5176C7.09839 71.5155 7.05678 71.5022 7.02116 71.4784C6.98555 71.4546 6.95699 71.4215 6.93857 71.3829C6.85413 71.1893 7.04834 71.0126 7.2341 70.8695C8.26499 70.1189 9.34531 69.4384 10.468 68.8324L10.4089 67.435L9.92761 67.6707C9.89629 67.6792 9.86314 67.6792 9.83182 67.6701C9.80065 67.6617 9.7724 67.6441 9.7503 67.6202L7.09055 65.036C7.07812 65.0221 7.07121 65.0045 7.07121 64.9855C7.07121 64.9665 7.07812 64.9491 7.09055 64.935C7.09055 64.935 7.17499 64.7582 7.35231 64.4468H5.87467C5.65514 64.9013 4.18595 67.8643 3.7131 68.0664C3.67918 68.0826 3.64172 68.091 3.6041 68.0895C3.56634 68.0889 3.52934 68.0791 3.49633 68.0609C3.46317 68.0425 3.43508 68.0166 3.41405 67.9857C3.39302 67.9542 3.37966 67.9184 3.37536 67.8812C3.27404 67.2499 4.52369 63.1336 5.35117 62.8895C6.26999 62.8053 7.19633 62.8679 8.09535 63.0747C8.1087 63.0801 8.11991 63.0894 8.12743 63.1015C8.13511 63.1136 8.13864 63.1278 8.13757 63.142ZM11.5741 66.728C11.239 66.9511 10.8923 67.1559 10.5356 67.3425L10.7129 68.9334C10.7129 69.0597 10.7129 68.9839 9.02415 70.095C8.50908 70.4233 7.98558 70.7684 7.63095 71.0294C8.91223 70.6772 10.1478 70.1771 11.3124 69.5395C11.4052 69.4805 11.6501 69.3122 11.6839 69.2028C11.7731 68.3772 11.7361 67.5425 11.5741 66.728ZM7.85048 63.9754C7.52118 64.4636 7.31853 64.8172 7.24254 64.9603L9.86007 67.3761C10.164 67.2246 10.4933 67.0394 10.8395 66.829C9.74892 65.9809 8.7475 65.0248 7.85048 63.9754ZM8.06157 63.2599C7.19065 63.1367 6.30653 63.1367 5.43561 63.2599C5.14008 63.3609 4.63346 64.6993 4.54058 64.9434C4.24244 65.7361 4.00264 66.549 3.82287 67.3761C4.32949 66.6269 5.71424 64.1774 5.65514 64.2953C5.66665 64.2714 5.68461 64.2518 5.70718 64.2385C5.7296 64.2252 5.75554 64.2189 5.78179 64.2195L7.4283 64.3037C7.59717 63.9838 7.79982 63.6555 8.06157 63.2599ZM12.714 58.8911C10.8001 60.1862 9.17352 61.8595 7.93492 63.807C9.05608 64.665 10.081 65.6415 10.9915 66.7195C12.9182 65.4534 14.5719 63.8168 15.855 61.9046L12.714 58.8911ZM11.2026 61.0039C11.0402 61.1737 10.9129 61.3736 10.8279 61.5923C10.743 61.811 10.7021 62.0444 10.7077 62.2788C10.713 62.5133 10.7648 62.7444 10.8599 62.959C10.955 63.1736 11.0915 63.3672 11.2617 63.5293C11.432 63.6913 11.6325 63.8184 11.8518 63.9031C12.0714 63.9873 12.3052 64.028 12.5405 64.0231C12.7757 64.0175 13.0075 63.9656 13.2228 63.8709C13.438 63.7763 13.6324 63.6401 13.7948 63.4703C14.1229 63.1276 14.301 62.6691 14.2899 62.1954C14.2788 61.7219 14.0794 61.2721 13.7357 60.945C13.392 60.618 12.932 60.4404 12.4569 60.4514C11.9819 60.4625 11.5307 60.6613 11.2026 61.0039ZM13.5584 61.1386C13.8301 61.4169 13.9822 61.7899 13.9822 62.1783C13.9822 62.5666 13.8301 62.9396 13.5584 63.2178C13.2919 63.464 12.9411 63.6001 12.5777 63.5974C12.2141 63.5944 11.8654 63.4543 11.6025 63.2037C11.3395 62.9535 11.1823 62.6126 11.163 62.2507C11.1436 61.8889 11.2634 61.5332 11.4981 61.2565C11.7594 60.9747 12.1202 60.8048 12.5045 60.7829C12.8887 60.7609 13.2665 60.8884 13.5584 61.1386ZM13.094 61.6184C13.209 61.7374 13.2863 61.8873 13.3164 62.0499C13.3464 62.2123 13.3279 62.3799 13.2632 62.5318C13.1984 62.6838 13.0901 62.8136 12.952 62.9047C12.8136 62.9959 12.6517 63.0444 12.486 63.0444C12.3204 63.0444 12.1583 62.9959 12.0201 62.9047C11.8821 62.8136 11.7739 62.6838 11.7091 62.5318C11.6441 62.3799 11.6255 62.2123 11.6558 62.0499C11.6857 61.8873 11.7631 61.7374 11.8781 61.6184C11.9568 61.537 12.0513 61.4723 12.1558 61.4279C12.2602 61.3837 12.3726 61.3609 12.486 61.3609C12.5995 61.3609 12.7119 61.3837 12.8163 61.4279C12.9208 61.4723 13.0152 61.537 13.094 61.6184Z" fill="#CECECE"/>
<path fill-rule="evenodd" clip-rule="evenodd" d="M39.8261 4.44564C39.7489 4.38034 39.6884 4.2977 39.6493 4.20462C39.6103 4.11146 39.5938 4.01045 39.6015 3.90987C39.609 3.80921 39.6405 3.71176 39.693 3.62556C39.7457 3.53927 39.818 3.46667 39.9041 3.41364C39.9902 3.36054 40.0877 3.32856 40.1886 3.32028C40.2894 3.312 40.3911 3.32758 40.4847 3.36587C40.5784 3.4041 40.6616 3.46387 40.7276 3.54039C40.7938 3.61685 40.8407 3.70784 40.8648 3.8059C40.8708 3.91182 40.8516 4.01767 40.8089 4.1149C40.7661 4.21206 40.701 4.29784 40.6186 4.36512C40.5363 4.43239 40.4393 4.47931 40.3353 4.50212C40.2312 4.52492 40.1235 4.52281 40.0205 4.49615C40.0205 4.58032 39.8938 5.51469 39.6405 6.60898C40.8136 6.61341 41.9462 7.03758 42.8322 7.80429C42.8449 7.7808 42.866 7.76285 42.8913 7.75379C49.4773 6.82784 50.1611 8.99957 48.0418 10.742C45.6607 12.7033 38.3485 14.9509 34.3124 14.4205C33.257 14.2943 31.6189 13.8061 31.602 12.8128C31.602 11.5333 35.0387 10.1107 35.1738 10.0434C35.7242 8.65368 36.7878 7.527 38.1458 6.89518C37.5463 6.24702 36.9217 5.30424 36.7781 5.14431C36.0604 5.53152 35.3849 4.614 35.9338 4.14261C36.0546 4.0369 36.2122 3.98253 36.3728 3.99109C36.5067 3.96401 36.6456 3.98275 36.7677 4.0442C36.8896 4.10564 36.9871 4.20623 37.0446 4.32977C37.1022 4.45322 37.1163 4.59246 37.0848 4.72497C37.0534 4.85748 36.978 4.97554 36.8708 5.06013C37.155 5.26413 37.4082 5.50795 37.6225 5.78405C38.8384 7.24873 37.8082 6.74366 39.3112 6.62582C39.3559 5.87496 39.53 5.13744 39.8261 4.44564ZM35.0301 10.2791C34.2702 10.6494 31.8216 11.9626 31.8553 12.8044C31.8553 13.0821 32.1002 13.3599 32.5477 13.604C35.6887 15.2876 45.036 12.6444 47.7464 10.4474C49.2916 9.21001 49.131 8.02315 46.1926 7.81271C45.0659 7.76179 43.9369 7.79552 42.8152 7.91372C42.6041 8.40195 40.5691 12.2404 35.0301 10.2791ZM34.1858 12.2825C34.1491 12.3604 34.1291 12.4452 34.1273 12.5312C34.1254 12.6172 34.1419 12.7027 34.1752 12.782C34.2088 12.8613 34.2585 12.9328 34.3213 12.9918C34.3843 13.0508 34.4589 13.0959 34.5406 13.1242C34.6215 13.1443 34.7056 13.1483 34.788 13.1359C34.8706 13.1235 34.9497 13.095 35.0211 13.052C35.0926 13.009 35.1546 12.9522 35.2041 12.8852C35.2535 12.8181 35.289 12.7421 35.3088 12.6613C35.3593 12.5128 35.3484 12.3504 35.2787 12.2099C35.209 12.0694 35.0862 11.9623 34.9374 11.9121C34.7883 11.8619 34.6256 11.8726 34.4847 11.9421C34.3437 12.0116 34.2363 12.134 34.1858 12.2825ZM34.8783 12.0468C35.2498 12.2151 34.9964 12.8885 34.6417 12.7875C34.2871 12.6865 34.473 11.971 34.8783 12.0468ZM40.7042 11.567C40.6445 11.5226 40.5756 11.4923 40.5027 11.4779C40.4294 11.4637 40.3542 11.4658 40.2822 11.4845C40.2101 11.503 40.143 11.5374 40.086 11.5852C40.0289 11.6331 39.9835 11.6929 39.9528 11.7606C39.888 11.9115 39.8815 12.0809 39.9345 12.2364C39.9875 12.3917 40.0963 12.5221 40.24 12.6023C40.3085 12.6447 40.3857 12.6712 40.466 12.6799C40.5461 12.6887 40.6272 12.6793 40.7033 12.6525C40.7795 12.6259 40.8487 12.5826 40.9058 12.526C40.9629 12.4692 41.0067 12.4003 41.0335 12.3245C41.081 12.1799 41.0736 12.023 41.013 11.8836C40.9523 11.744 40.8426 11.6314 40.7042 11.567ZM40.6368 11.6848C40.9746 11.9373 40.7551 12.5266 40.4004 12.3245C40.0458 12.1225 40.2316 11.5165 40.6368 11.6932V11.6848ZM45.1542 9.27735C45.1051 9.23159 45.0461 9.19731 44.9819 9.17741C44.9179 9.15736 44.8501 9.15201 44.7836 9.16165C44.717 9.17144 44.6536 9.19593 44.5978 9.23343C44.5421 9.27092 44.4956 9.32051 44.4618 9.37836C44.3964 9.5132 44.3828 9.66701 44.4231 9.81119C44.4635 9.95536 44.5553 10.0798 44.6812 10.1612C44.7375 10.207 44.8032 10.2396 44.8737 10.2569C44.9442 10.2742 45.0177 10.2755 45.0888 10.2611C45.1599 10.2466 45.2268 10.2165 45.285 10.173C45.343 10.1295 45.3906 10.0738 45.4244 10.0097C45.4554 9.94403 45.4731 9.87286 45.4763 9.80032C45.4795 9.72777 45.4683 9.65523 45.4433 9.58712C45.4181 9.51886 45.3796 9.45642 45.33 9.40316C45.2802 9.35005 45.2205 9.3072 45.1542 9.27735ZM45.0865 9.38678C45.3398 9.62248 45.1626 10.0939 44.8671 9.89184C44.5716 9.68982 44.7403 9.21843 45.0865 9.38678ZM36.3728 4.11735C36.482 4.12136 36.5858 4.16582 36.6639 4.24215C36.7419 4.3184 36.7887 4.42095 36.7948 4.52982C36.7905 4.62733 36.7486 4.71935 36.6777 4.78685C36.6069 4.85425 36.513 4.89185 36.415 4.89178C36.3641 4.89452 36.3129 4.88722 36.2647 4.87032C36.2165 4.85341 36.1722 4.82725 36.1341 4.79323C36.0573 4.72456 36.011 4.62831 36.0054 4.52561C35.9998 4.42291 36.0354 4.32219 36.1043 4.24559C36.1731 4.16905 36.2698 4.12289 36.3728 4.11735ZM40.1133 3.40185C40.2225 3.40586 40.3263 3.45032 40.4044 3.52665C40.4824 3.6029 40.5292 3.70545 40.5354 3.81432C40.5311 3.91182 40.4892 4.00385 40.4182 4.07135C40.3475 4.13875 40.2535 4.17635 40.1556 4.17628C40.1011 4.18681 40.045 4.18561 39.991 4.17271C39.937 4.15987 39.8864 4.1356 39.8427 4.10157C39.7989 4.06755 39.7629 4.02462 39.7372 3.97558C39.7114 3.92656 39.6967 3.87261 39.6936 3.81741C39.6906 3.76213 39.6993 3.70692 39.7196 3.65538C39.7397 3.60387 39.7707 3.55723 39.8104 3.51866C39.8502 3.48007 39.8978 3.4504 39.9502 3.43174C40.0023 3.41301 40.0581 3.40571 40.1133 3.41027V3.40185ZM81.7826 45.1955C82.1787 44.4635 82.8283 43.9004 83.6108 43.6109C84.3925 43.3213 85.2537 43.3254 86.0333 43.622C86.8123 43.919 87.4568 44.4882 87.8459 45.2237C88.2357 45.9594 88.3433 46.811 88.1491 47.6198C89.3911 48.2222 90.5774 48.9321 91.6955 49.7411C92.1852 50.1788 92.1176 50.5828 91.2479 50.5239C89.7379 50.3897 88.2442 50.1076 86.7897 49.6822C86.3239 50.021 85.7808 50.2379 85.2094 50.3126C84.638 50.3873 84.0567 50.3175 83.5193 50.1095C82.9816 49.9016 82.5053 49.5623 82.1345 49.1228C81.763 48.6834 81.5083 48.1578 81.3942 47.5946C80.5499 47.1905 77.6199 45.6838 77.4426 44.8336C77.3835 44.5221 77.6875 44.379 78.0083 44.3454C79.3059 44.4133 80.5815 44.7009 81.7826 45.1955ZM88.0816 47.7966C87.917 48.3685 87.6052 48.8878 87.1781 49.3034C88.6128 49.7157 90.0827 49.9974 91.5688 50.1451C91.0875 49.5222 88.774 48.1922 88.0816 47.7966ZM81.6982 47.7208C81.8354 48.1945 82.0795 48.6303 82.4131 48.9944C82.7466 49.3585 83.1597 49.641 83.6198 49.8201C84.0807 49.9993 84.5767 50.0701 85.0694 50.0273C85.5619 49.9843 86.0375 49.8288 86.4604 49.5727C84.8294 49.0739 83.2371 48.4549 81.6982 47.7208ZM86.9164 49.2276C87.5096 48.7005 87.8874 47.974 87.9781 47.1869C88.0682 46.3997 87.8648 45.6069 87.4061 44.9598C87.1655 44.6065 86.8551 44.3057 86.4942 44.076C86.1325 43.8463 85.7286 43.6925 85.3058 43.6239C84.8828 43.5553 84.4501 43.5735 84.0349 43.6773C83.6192 43.7811 83.2293 43.9684 82.8888 44.2275C82.43 44.5641 82.0684 45.0151 81.8404 45.5352C81.6116 46.0554 81.5252 46.6262 81.5884 47.1905C83.3068 48.0115 85.0884 48.6927 86.9164 49.2276ZM81.6982 45.3639C81.0734 45.1619 78.3208 44.3706 77.8226 44.7578C78.0168 45.3639 80.761 46.7865 81.3942 47.0474C81.3463 46.4694 81.4506 45.8888 81.6982 45.3639ZM20.4818 97.242C21.5013 97.9099 22.5744 98.4927 23.6903 98.9844C23.7012 98.988 23.7129 98.9873 23.7235 98.9838C23.7341 98.9795 23.743 98.9719 23.7488 98.9621C23.7547 98.9521 23.7571 98.941 23.7557 98.9298C23.7544 98.9185 23.7491 98.9081 23.741 98.9003C22.7204 98.2339 21.6474 97.6517 20.5324 97.1578C20.5217 97.1543 20.51 97.155 20.4994 97.1586C20.4887 97.1627 20.4798 97.1705 20.4739 97.1803C20.4681 97.1893 20.4656 97.2013 20.4672 97.2126C20.4686 97.2238 20.4736 97.2343 20.4818 97.242ZM2.17598 23.3349C2.17598 21.2978 2.29419 19.3786 2.29419 19.4627C2.29972 19.4459 2.31046 19.4312 2.32489 19.4208C2.33932 19.4104 2.35667 19.4049 2.37448 19.4049C2.39229 19.4049 2.40948 19.4104 2.42391 19.4208C2.43835 19.4312 2.44909 19.4459 2.45462 19.4627C2.45462 20.0772 2.56439 20.6244 2.57283 23.4695C3.19689 23.0647 3.84229 22.6937 4.50642 22.3584C4.51532 22.3529 4.52515 22.3492 4.53543 22.3474C4.54587 22.3457 4.55647 22.346 4.5666 22.3483C4.57673 22.3508 4.5864 22.355 4.595 22.3612C4.60344 22.3671 4.61066 22.3748 4.61619 22.3837C4.62171 22.3925 4.62555 22.4023 4.62724 22.4127C4.62908 22.4228 4.62862 22.4334 4.62632 22.4437C4.62402 22.4538 4.61956 22.4634 4.61358 22.4718C4.60744 22.4804 4.59976 22.4876 4.59086 22.4931C4.05046 22.9351 3.48658 23.3482 2.90213 23.7305C4.11801 24.3955 4.36288 24.5723 4.94549 24.9258C5.5281 25.2793 5.53654 25.2793 5.49432 25.3635C5.45211 25.4477 5.40989 25.414 4.82728 25.1447C4.24467 24.8753 3.84782 24.7069 2.57283 24.0083C2.57283 27.2322 2.44617 28.7053 2.44617 28.6212C2.44065 28.638 2.4299 28.6527 2.41547 28.6631C2.40104 28.6735 2.38385 28.679 2.36604 28.679C2.34823 28.679 2.33088 28.6735 2.31645 28.6631C2.30202 28.6527 2.29127 28.638 2.28575 28.6212C2.28575 28.0151 2.16754 27.4848 2.16754 24.2019C1.50878 24.637 0.826687 25.036 0.124177 25.3972C0.115273 25.4027 0.105448 25.4065 0.0951622 25.4082C0.0848764 25.4099 0.0742838 25.4096 0.0641514 25.4073C0.0538656 25.4048 0.0441933 25.4006 0.0357497 25.3944C0.027306 25.3885 0.0199373 25.3808 0.0144106 25.3719C0.00888387 25.3631 0.00519921 25.3533 0.00351049 25.343C0.00166824 25.3328 0.00197507 25.3222 0.0044314 25.3119C0.00673421 25.3018 0.0110325 25.2922 0.0171733 25.2838C0.0231606 25.2752 0.0308366 25.268 0.0397407 25.2625C0.704638 24.7198 1.40101 24.2166 2.12532 23.7557C1.44138 23.3769 1.22185 23.2423 0.681457 22.914C0.141065 22.5857 -0.0362509 22.4847 0.00596722 22.3921C0.0219334 22.3804 0.0411234 22.3742 0.0609275 22.3742C0.0805781 22.3742 0.0999215 22.3804 0.115734 22.3921C1.17963 22.7877 1.8129 23.1497 2.17598 23.3349Z" fill="#CECECE"/>
</svg>
