<svg width="59" height="46" viewBox="0 0 59 46" fill="none" xmlns="http://www.w3.org/2000/svg">
<path fill-rule="evenodd" clip-rule="evenodd" d="M0.542944 37.7968C0.542944 38.219 0.420885 38.582 0.273577 38.582C0.126265 38.582 2.14481e-06 38.2316 2.16382e-06 37.7968C2.18283e-06 37.3619 0.122057 37.0157 0.273577 37.0157C0.425093 37.0157 0.542944 37.3661 0.542944 37.7968ZM11.2881 10.9166C11.1829 10.9166 10.3874 10.8532 9.22577 10.887C9.07004 10.887 8.53973 10.9166 8.53973 10.9166C8.53973 10.9166 8.51027 10.9672 8.53973 10.9672C8.56919 10.9672 9.07004 10.9926 9.22577 10.9968C10.1938 11.0221 11.3302 10.9672 11.2881 10.9672C11.2948 10.9672 11.301 10.9646 11.306 10.9598C11.3105 10.955 11.3134 10.9486 11.3134 10.9419C11.3134 10.9351 11.3105 10.9288 11.306 10.924C11.301 10.9192 11.2948 10.9166 11.2881 10.9166ZM57.278 28.5003C57.1349 29.0281 56.8361 29.9611 56.4026 30.2988C56.3867 30.3111 56.3673 30.3178 56.3473 30.3178C56.3273 30.3178 56.3078 30.3119 56.2917 30.2999C56.2756 30.2879 56.2638 30.271 56.258 30.252C56.2521 30.2327 56.2527 30.2123 56.2595 30.1933C56.9455 28.5046 56.0701 25.8153 55.363 24.1097C55.081 23.4342 59.6392 27.4871 58.9237 30.4002C58.9176 30.4202 58.9054 30.4375 58.8887 30.4501C58.872 30.4624 58.8518 30.4691 58.8311 30.4691C58.8103 30.4691 58.7901 30.4624 58.7735 30.4501C58.7568 30.4375 58.7446 30.4202 58.7385 30.4002C58.5837 29.738 58.3826 29.0879 58.1366 28.4539C58.1156 28.9394 58.044 30.0582 57.7157 30.4339C57.7029 30.4491 57.686 30.4596 57.6671 30.4652C57.6482 30.4705 57.6282 30.4705 57.6095 30.4646C57.5907 30.4586 57.5741 30.4477 57.5615 30.4326C57.549 30.417 57.5412 30.3988 57.539 30.379C57.4844 29.7489 57.3973 29.1216 57.278 28.5003ZM58.8058 29.902C58.8088 29.0727 58.594 28.2572 58.1829 27.5378C57.502 26.2505 56.5837 25.1043 55.4766 24.1604C56.1753 25.7773 56.9666 28.0782 56.5709 29.8049C56.8483 29.2603 57.0521 28.6812 57.177 28.0824C57.1816 28.0606 57.1935 28.0412 57.2108 28.0271C57.228 28.0131 57.2495 28.0053 57.2717 28.0053C57.2939 28.0053 57.3154 28.0131 57.3327 28.0271C57.3499 28.0412 57.3618 28.0606 57.3664 28.0824C57.5392 28.7259 57.6575 29.3823 57.7199 30.0455C57.8722 29.3982 57.9484 28.735 57.9472 28.0697C57.9466 28.0482 57.9533 28.0268 57.9661 28.0095C57.9789 27.992 57.9972 27.9793 58.018 27.9733C58.0388 27.9677 58.061 27.9691 58.0809 27.9772C58.1009 27.9857 58.1175 28.0004 58.1282 28.0191C58.4237 28.6192 58.651 29.2511 58.8058 29.902ZM23.5989 1.39215C23.5442 0.972273 23.5186 0.549017 23.5232 0.125607C23.5225 0.104114 23.5288 0.0829286 23.5418 0.0658111C23.5547 0.0486936 23.5733 0.0365658 23.5943 0.0315764C23.6151 0.026587 23.6371 0.0290432 23.6564 0.0384847C23.6758 0.0479262 23.6912 0.0638158 23.7 0.0833896C23.9819 0.606895 24.2597 1.83966 24.6974 2.47294L25.7412 4.03923C25.7448 4.04238 25.7475 4.04629 25.7497 4.05067C25.7517 4.05504 25.7528 4.0598 25.7528 4.06456C25.7528 4.0694 25.7517 4.07408 25.7497 4.07845C25.7475 4.08283 25.7448 4.08674 25.7412 4.08989C25.6865 4.13633 25.6823 4.03923 24.9879 3.5115C24.5579 3.16117 24.0784 2.87662 23.5653 2.66714C23.0286 2.44077 22.4808 2.24204 21.9238 2.07186C21.7976 2.07186 21.705 1.76789 22.3952 1.85233C22.6526 1.88733 22.9083 1.93515 23.1612 1.99587C22.8459 1.55788 22.5646 1.09639 22.3195 0.615338C22.3096 0.59799 22.3051 0.578032 22.3068 0.558151C22.3089 0.538271 22.3166 0.519387 22.3296 0.504189C22.3426 0.488914 22.3598 0.478091 22.3791 0.473024C22.3983 0.467958 22.4187 0.469033 22.4373 0.476018C22.887 0.691944 23.2836 1.00474 23.5989 1.39215ZM25.4635 3.7817C24.0114 1.71301 24.5375 2.63759 23.7168 0.57312C23.7179 0.968205 23.7771 1.36091 23.8936 1.73834L23.9314 1.78478C24.003 1.87766 23.8599 2.04231 23.742 1.86077C23.4239 1.45502 23.0496 1.0967 22.6309 0.796876C22.8694 1.26442 23.1619 1.70226 23.5021 2.10142C23.5193 2.11631 23.5309 2.13673 23.5344 2.15922C23.5383 2.18171 23.534 2.20474 23.5225 2.22439C23.5109 2.24396 23.4926 2.25893 23.4712 2.26653C23.4499 2.27413 23.4267 2.27405 23.4053 2.26607C23.0879 2.17871 22.7663 2.10832 22.4415 2.05498C23.5684 2.38873 24.6027 2.97971 25.4635 3.7817ZM27.429 4.06878C28.5854 4.78472 29.5221 5.80755 30.1353 7.02405C30.9055 8.66211 30.0848 9.26161 28.6117 8.51857C27.4349 7.88584 26.4251 6.98137 25.6655 5.87994C25.2337 6.00398 24.7841 6.05388 24.3355 6.0277C23.9146 5.91794 23.2075 3.85347 23.2412 3.57061C23.2423 3.54919 23.2489 3.52839 23.2608 3.51058C23.2727 3.49277 23.2892 3.4785 23.3085 3.46928C23.4053 3.42707 23.4937 3.52417 23.5653 3.61705C23.9405 4.13249 24.2808 4.67265 24.5838 5.234L25.2825 5.20445L25.1646 4.96381C25.1604 4.94815 25.1604 4.93157 25.1649 4.91591C25.1691 4.90033 25.1779 4.8862 25.1899 4.87515L26.482 3.54528C26.489 3.53906 26.4978 3.5356 26.5072 3.5356C26.5167 3.5356 26.5255 3.53906 26.5325 3.54528C26.5325 3.54528 26.6209 3.58749 26.7766 3.67615L26.7766 2.93734C26.5493 2.82757 25.0678 2.09297 24.9668 1.85655C24.9587 1.83959 24.9545 1.82086 24.9553 1.80205C24.9556 1.78317 24.9605 1.76467 24.9696 1.74817C24.9787 1.73159 24.9917 1.71754 25.0071 1.70702C25.0229 1.69651 25.0408 1.68983 25.0594 1.68768C25.3751 1.63702 27.4332 2.26185 27.5552 2.67558C27.5973 3.13499 27.566 3.59816 27.4627 4.04767C27.46 4.05435 27.4553 4.05995 27.4493 4.06371C27.4432 4.06755 27.4361 4.06932 27.429 4.06878ZM25.636 5.78706C25.5244 5.61949 25.4221 5.44617 25.3288 5.26778L24.5333 5.35643C24.4702 5.35643 24.508 5.35643 23.9525 4.51207C23.7883 4.25454 23.6158 3.99279 23.4853 3.81547C23.6614 4.45611 23.9115 5.07388 24.2303 5.65618C24.2597 5.70262 24.3439 5.82506 24.3986 5.84194C24.8114 5.88654 25.2288 5.86804 25.636 5.78706ZM27.0123 3.92524C26.7682 3.76059 26.5914 3.65927 26.5199 3.62127L25.3119 4.93003C25.3877 5.08202 25.4803 5.24667 25.5855 5.41976C26.0095 4.87446 26.4876 4.37375 27.0123 3.92524ZM27.3701 4.03078C27.4317 3.59532 27.4317 3.15326 27.3701 2.7178C27.3196 2.57004 26.6503 2.31673 26.5283 2.27029C26.132 2.12122 25.7255 2.00132 25.3119 1.91143C25.6865 2.16474 26.9113 2.85712 26.8524 2.82757C26.8643 2.83333 26.8741 2.84231 26.8808 2.85359C26.8874 2.8648 26.8906 2.87777 26.8903 2.8909L26.8482 3.71415C27.0081 3.79859 27.1722 3.89991 27.3701 4.03078ZM29.5544 6.357C28.9069 5.40003 28.0703 4.58676 27.0965 3.96746C26.6675 4.52804 26.1793 5.04049 25.6402 5.49575C26.2733 6.4591 27.0916 7.28596 28.0477 7.92752L29.5544 6.357ZM28.498 5.6013C28.4132 5.52009 28.3132 5.45645 28.2039 5.41393C28.0945 5.37148 27.9778 5.35106 27.8606 5.35382C27.7433 5.35651 27.6278 5.38238 27.5205 5.42997C27.4132 5.47749 27.3164 5.54573 27.2354 5.63085C27.1543 5.71598 27.0908 5.81623 27.0484 5.92592C27.0063 6.03569 26.986 6.15259 26.9884 6.27027C26.9913 6.38786 27.0172 6.50377 27.0646 6.61139C27.1119 6.71901 27.18 6.81618 27.2648 6.8974C27.4362 7.06143 27.6654 7.15048 27.9023 7.14495C28.139 7.13942 28.364 7.03971 28.5275 6.86784C28.691 6.69598 28.7798 6.466 28.7743 6.22843C28.7688 5.99094 28.6694 5.76534 28.498 5.6013ZM28.4307 6.77919C28.2916 6.91505 28.1051 6.99112 27.9109 6.99112C27.7167 6.99112 27.5302 6.91505 27.3911 6.77919C27.268 6.64593 27.1999 6.47053 27.2013 6.28884C27.2028 6.10707 27.2729 5.93267 27.3981 5.80126C27.5233 5.66977 27.6937 5.59117 27.8747 5.5815C28.0556 5.57182 28.2334 5.6317 28.3718 5.74906C28.5126 5.87971 28.5976 6.0601 28.6085 6.25223C28.6195 6.44436 28.5558 6.63327 28.4307 6.77919ZM28.1908 6.54699C28.1313 6.60448 28.0563 6.64317 27.9751 6.65821C27.8939 6.67318 27.8101 6.66397 27.7341 6.63158C27.6581 6.59918 27.5932 6.54507 27.5477 6.47598C27.5021 6.40682 27.4778 6.32584 27.4778 6.24302C27.4778 6.16019 27.5021 6.07913 27.5477 6.01005C27.5932 5.94104 27.6581 5.88692 27.7341 5.85453C27.8101 5.82206 27.8939 5.81277 27.9751 5.8279C28.0563 5.84286 28.1313 5.88155 28.1908 5.93904C28.2315 5.97842 28.2639 6.02563 28.2861 6.0779C28.3082 6.1301 28.3196 6.18629 28.3196 6.24302C28.3196 6.29974 28.3082 6.35593 28.2861 6.40813C28.2639 6.4604 28.2315 6.50761 28.1908 6.54699Z" fill="#CECECE"/>
<path fill-rule="evenodd" clip-rule="evenodd" d="M56.7771 19.9131C56.8097 19.8744 56.851 19.8442 56.8976 19.8246C56.9441 19.8051 56.9947 19.7969 57.0449 19.8008C57.0953 19.8045 57.144 19.8203 57.1871 19.8465C57.2302 19.8728 57.2665 19.909 57.2931 19.9521C57.3196 19.9951 57.3356 20.0439 57.3397 20.0943C57.3439 20.1447 57.3361 20.1955 57.3169 20.2424C57.2978 20.2892 57.2679 20.3308 57.2297 20.3638C57.1915 20.3969 57.146 20.4204 57.0969 20.4324C57.044 20.4354 56.991 20.4258 56.9424 20.4045C56.8938 20.3831 56.851 20.3505 56.8173 20.3093C56.7837 20.2682 56.7602 20.2196 56.7488 20.1677C56.7374 20.1156 56.7385 20.0617 56.7518 20.0102C56.7097 20.0102 56.2425 19.9469 55.6954 19.8203C55.6932 20.4068 55.4811 20.9731 55.0977 21.4161C55.1095 21.4225 55.1185 21.433 55.123 21.4457C55.586 24.7387 54.5001 25.0806 53.6289 24.0209C52.6482 22.8303 51.5244 19.1742 51.7896 17.1562C51.8527 16.6285 52.0968 15.8095 52.5935 15.801C53.2332 15.801 53.9445 17.5194 53.9782 17.5869C54.673 17.8621 55.2364 18.3939 55.5523 19.0729C55.8764 18.7732 56.3478 18.4608 56.4277 18.3891C56.2341 18.0302 56.6929 17.6925 56.9286 17.9669C56.9814 18.0273 57.0086 18.1061 57.0043 18.1864C57.0179 18.2533 57.0085 18.3228 56.9778 18.3838C56.9471 18.4448 56.8968 18.4935 56.835 18.5223C56.7733 18.5511 56.7036 18.5582 56.6374 18.5424C56.5711 18.5267 56.5121 18.489 56.4698 18.4354C56.3678 18.5775 56.2459 18.7041 56.1079 18.8112C55.3755 19.4192 55.628 18.9041 55.687 19.6556C56.0624 19.6779 56.4312 19.765 56.7771 19.9131ZM53.8603 17.5151C53.6752 17.1351 53.0186 15.9108 52.5977 15.9277C52.4588 15.9277 52.3199 16.0501 52.1979 16.2739C51.3561 17.8444 52.6777 22.518 53.7762 23.8732C54.3949 24.6458 54.9883 24.5655 55.0935 23.0963C55.119 22.533 55.1021 21.9685 55.043 21.4076C54.7989 21.302 52.8797 20.2846 53.8603 17.5151ZM52.8586 17.0929C52.8197 17.0745 52.7773 17.0646 52.7343 17.0636C52.6913 17.0627 52.6485 17.0709 52.6089 17.0876C52.5692 17.1044 52.5335 17.1293 52.504 17.1607C52.4745 17.1921 52.4519 17.2294 52.4378 17.2703C52.4277 17.3107 52.4257 17.3528 52.4319 17.394C52.4381 17.4353 52.4524 17.4748 52.4739 17.5105C52.4954 17.5463 52.5238 17.5773 52.5573 17.602C52.5908 17.6268 52.6288 17.6445 52.6692 17.6544C52.7435 17.6796 52.8247 17.6742 52.8949 17.6393C52.9652 17.6045 53.0187 17.5431 53.0438 17.4687C53.0689 17.3942 53.0636 17.3128 53.0288 17.2423C52.9941 17.1719 52.9329 17.1181 52.8586 17.0929ZM52.9765 17.4392C52.8923 17.6249 52.5556 17.4982 52.6061 17.3209C52.6566 17.1435 53.0144 17.2365 52.9765 17.4392ZM53.2164 20.3521C53.2386 20.3223 53.2537 20.2878 53.2609 20.2513C53.2681 20.2147 53.267 20.1771 53.2576 20.1411C53.2484 20.105 53.2312 20.0715 53.2073 20.043C53.1833 20.0145 53.1534 19.9917 53.1196 19.9764C53.0441 19.944 52.9594 19.9408 52.8817 19.9672C52.804 19.9937 52.7388 20.0482 52.6987 20.12C52.6775 20.1542 52.6643 20.1928 52.6599 20.233C52.6556 20.2731 52.6602 20.3136 52.6736 20.3517C52.6869 20.3897 52.7086 20.4244 52.7369 20.4529C52.7653 20.4815 52.7997 20.5033 52.8376 20.5168C52.9099 20.5405 52.9884 20.5368 53.0581 20.5065C53.1279 20.4762 53.1842 20.4213 53.2164 20.3521ZM53.1575 20.3184C53.0312 20.4873 52.7366 20.3775 52.8376 20.2002C52.9386 20.0229 53.2417 20.1158 53.1533 20.3184L53.1575 20.3184ZM54.3612 22.5771C54.3841 22.5525 54.4012 22.5231 54.4112 22.491C54.4212 22.459 54.4239 22.425 54.4191 22.3918C54.4142 22.3585 54.4019 22.3268 54.3832 22.2989C54.3644 22.2711 54.3396 22.2478 54.3107 22.2309C54.2433 22.1982 54.1664 22.1914 54.0943 22.2116C54.0222 22.2318 53.96 22.2777 53.9193 22.3406C53.8964 22.3688 53.8801 22.4016 53.8714 22.4369C53.8628 22.4721 53.8621 22.5089 53.8693 22.5444C53.8766 22.5799 53.8916 22.6134 53.9134 22.6425C53.9351 22.6715 53.963 22.6953 53.995 22.7122C54.0279 22.7277 54.0634 22.7365 54.0997 22.7381C54.136 22.7398 54.1723 22.7341 54.2063 22.7216C54.2404 22.709 54.2717 22.6898 54.2983 22.665C54.3249 22.6401 54.3463 22.6103 54.3612 22.5771ZM54.3065 22.5432C54.1886 22.6699 53.9529 22.5813 54.054 22.4336C54.155 22.2858 54.3907 22.3702 54.3065 22.5432ZM56.9412 18.1864C56.9392 18.241 56.917 18.2929 56.8788 18.3319C56.8407 18.3709 56.7894 18.3944 56.735 18.3974C56.6862 18.3953 56.6402 18.3743 56.6065 18.3389C56.5728 18.3035 56.5539 18.2565 56.554 18.2075C56.5526 18.182 56.5563 18.1565 56.5647 18.1324C56.5732 18.1083 56.5863 18.0861 56.6033 18.0671C56.6376 18.0287 56.6857 18.0055 56.7371 18.0027C56.7884 17.9999 56.8388 18.0177 56.8771 18.0522C56.9154 18.0865 56.9384 18.1349 56.9412 18.1864ZM57.299 20.0567C57.2969 20.1113 57.2747 20.1631 57.2366 20.2022C57.1984 20.2412 57.1472 20.2646 57.0927 20.2677C57.044 20.2655 56.998 20.2446 56.9642 20.2091C56.9305 20.1737 56.9117 20.1268 56.9117 20.0778C56.9065 20.0505 56.9071 20.0225 56.9135 19.9955C56.9199 19.9685 56.9321 19.9432 56.9491 19.9213C56.9661 19.8995 56.9876 19.8814 57.0121 19.8686C57.0366 19.8557 57.0636 19.8483 57.0912 19.8468C57.1188 19.8453 57.1464 19.8497 57.1722 19.8598C57.1979 19.8698 57.2213 19.8853 57.2405 19.9052C57.2598 19.9251 57.2747 19.9489 57.284 19.9751C57.2934 20.0012 57.297 20.029 57.2947 20.0567L57.299 20.0567ZM36.4021 40.8913C36.7681 41.0894 37.0497 41.4141 37.1944 41.8054C37.3392 42.1963 37.3372 42.6269 37.1889 43.0167C37.0404 43.4061 36.7558 43.7284 36.388 43.923C36.0202 44.1179 35.5944 44.1717 35.19 44.0746C34.8888 44.6956 34.5338 45.2887 34.1293 45.8477C33.9105 46.0926 33.7085 46.0588 33.7379 45.624C33.805 44.869 33.9461 44.1221 34.1588 43.3949C33.9894 43.162 33.8809 42.8904 33.8436 42.6047C33.8062 42.319 33.8411 42.0284 33.9451 41.7596C34.0491 41.4908 34.2187 41.2526 34.4385 41.0673C34.6582 40.8815 34.921 40.7542 35.2026 40.6971C35.4046 40.2749 36.158 38.81 36.5831 38.7213C36.7388 38.6918 36.8104 38.8437 36.8272 39.0042C36.7932 39.6529 36.6494 40.2908 36.4021 40.8913ZM35.1016 44.0408C34.8156 43.9585 34.556 43.8026 34.3482 43.5891C34.142 44.3064 34.0012 45.0414 33.9273 45.7844C34.2388 45.5438 34.9038 44.387 35.1016 44.0408ZM35.1395 40.8491C34.9026 40.9177 34.6847 41.0398 34.5027 41.2066C34.3206 41.3733 34.1794 41.5799 34.0898 41.8099C34.0002 42.0403 33.9648 42.2884 33.9862 42.5347C34.0077 42.7809 34.0855 43.0187 34.2135 43.2302C34.4629 42.4147 34.7724 41.6186 35.1395 40.8491ZM34.3861 43.4582C34.6496 43.7548 35.0129 43.9437 35.4064 43.9891C35.8 44.0341 36.1964 43.9324 36.52 43.7031C36.6966 43.5828 36.847 43.4276 36.9619 43.2471C37.0767 43.0662 37.1537 42.8643 37.1879 42.6529C37.2222 42.4414 37.2131 42.225 37.1612 42.0175C37.1093 41.8096 37.0157 41.6146 36.8861 41.4444C36.7178 41.215 36.4923 41.0342 36.2323 40.9202C35.9722 40.8058 35.6868 40.7626 35.4046 40.7942C34.9941 41.6534 34.6535 42.5442 34.3861 43.4582ZM36.3179 40.8491C36.4189 40.5367 36.8146 39.1604 36.621 38.9113C36.3179 39.0084 35.6066 40.3805 35.4762 40.6971C35.7652 40.6732 36.0555 40.7253 36.3179 40.8491ZM10.3789 10.2409C10.0449 10.7506 9.75353 11.2872 9.50766 11.8452C9.5059 11.8506 9.50621 11.8565 9.50796 11.8617C9.51011 11.867 9.51393 11.8715 9.51883 11.8744C9.5238 11.8773 9.52939 11.8786 9.53498 11.8779C9.54064 11.8772 9.54584 11.8746 9.54974 11.8705C9.88293 11.3602 10.174 10.8237 10.421 10.2662C10.4227 10.2608 10.4224 10.255 10.4206 10.2497C10.4185 10.2443 10.4146 10.2399 10.4097 10.237C10.4052 10.234 10.3992 10.2328 10.3936 10.2336C10.388 10.2343 10.3827 10.2368 10.3789 10.2409ZM47.3324 1.08799C48.351 1.08799 49.3106 1.14709 49.2685 1.14709C49.2769 1.14986 49.2843 1.15523 49.2895 1.16245C49.2947 1.16966 49.2974 1.17834 49.2974 1.18724C49.2974 1.19614 49.2947 1.20474 49.2895 1.21196C49.2843 1.21917 49.2769 1.22455 49.2685 1.22731C48.9613 1.22731 48.6877 1.28219 47.2651 1.28641C47.4675 1.59844 47.653 1.92114 47.8207 2.25321C47.8234 2.25766 47.8253 2.26257 47.8262 2.26772C47.827 2.27294 47.8269 2.27823 47.8257 2.2833C47.8245 2.28837 47.8224 2.2932 47.8193 2.2975C47.8163 2.30172 47.8125 2.30533 47.808 2.30809C47.8036 2.31086 47.7987 2.31278 47.7935 2.31362C47.7885 2.31454 47.7832 2.31431 47.778 2.31316C47.773 2.31201 47.7682 2.30978 47.764 2.30679C47.7597 2.30372 47.7561 2.29988 47.7533 2.29543C47.5323 2.02523 47.3258 1.74329 47.1346 1.45106C46.8021 2.05901 46.7137 2.18144 46.537 2.47274C46.3602 2.76405 46.3602 2.76827 46.3181 2.74716C46.276 2.72605 46.2929 2.70494 46.4275 2.41364C46.5622 2.12233 46.6464 1.92391 46.9957 1.28641C45.3838 1.28641 44.6472 1.22309 44.6893 1.22309C44.6809 1.22032 44.6735 1.21495 44.6683 1.20774C44.6631 1.20052 44.6604 1.19192 44.6604 1.18302C44.6604 1.17411 44.6631 1.16544 44.6683 1.15822C44.6735 1.15101 44.6809 1.14564 44.6893 1.14287C44.9923 1.14287 45.2575 1.08377 46.8989 1.08377C46.6814 0.754389 46.4819 0.413343 46.3013 0.0620883C46.2985 0.0576362 46.2966 0.0527236 46.2958 0.0475806C46.2949 0.0424377 46.2951 0.0371414 46.2962 0.0320752C46.2975 0.0269323 46.2996 0.0220962 46.3027 0.0178743C46.3056 0.0136525 46.3095 0.00996819 46.3139 0.00720482C46.3183 0.00444145 46.3232 0.00259913 46.3284 0.00175476C46.3335 0.000833641 46.3388 0.000987055 46.3439 0.00221522C46.349 0.00336662 46.3538 0.00551578 46.358 0.00858619C46.3623 0.0115798 46.3659 0.0154178 46.3686 0.0198699C46.64 0.352319 46.8916 0.700503 47.122 1.06266C47.3114 0.720691 47.3787 0.610924 47.5429 0.340728C47.707 0.0705319 47.7575 -0.0181259 47.8038 0.0029832C47.8097 0.0109663 47.8128 0.0205613 47.8128 0.0304633C47.8128 0.0402887 47.8097 0.0499603 47.8038 0.0578666C47.606 0.589815 47.425 0.906451 47.3324 1.08799Z" fill="#CECECE"/>
</svg>
