<svg width="275" height="312" viewBox="0 0 275 312" fill="none" xmlns="http://www.w3.org/2000/svg">
<path fill-rule="evenodd" clip-rule="evenodd" d="M174.098 298.883C176.03 299.401 177.542 300.405 177.361 301.081C177.18 301.756 175.421 301.905 173.431 301.372C171.442 300.839 170.007 299.855 170.193 299.16C170.38 298.466 172.128 298.355 174.098 298.883ZM64.2958 216.669C64.1666 217.151 62.8997 220.72 61.6274 226.086C61.4361 226.8 60.92 229.267 60.92 229.267C60.92 229.267 61.1156 229.465 61.1518 229.329C61.188 229.194 61.9191 226.93 62.1297 226.221C63.4346 221.814 64.5793 216.538 64.5276 216.731C64.5358 216.7 64.5316 216.668 64.5155 216.64C64.4993 216.613 64.4733 216.592 64.4427 216.584C64.4118 216.576 64.3792 216.581 64.3519 216.596C64.324 216.613 64.304 216.638 64.2958 216.669ZM201.246 27.4079C203.485 28.7109 207.388 31.2247 208.401 33.6261C208.437 33.714 208.444 33.8111 208.419 33.9027C208.395 33.9944 208.344 34.0765 208.269 34.1356C208.195 34.1947 208.103 34.2284 208.009 34.2315C207.913 34.2345 207.821 34.2072 207.742 34.1526C200.857 28.9372 187.476 29.6529 178.803 30.8031C175.366 31.2675 199.51 15.3418 211.961 22.1934C212.045 22.2458 212.109 22.3232 212.147 22.4151C212.182 22.5067 212.188 22.6073 212.163 22.7025C212.137 22.7975 212.082 22.8819 212.005 22.9432C211.927 23.0042 211.833 23.0391 211.733 23.0424C208.513 22.9402 205.291 23.065 202.088 23.4151C204.284 24.1068 209.316 25.8065 210.632 27.7721C210.685 27.8495 210.713 27.9398 210.715 28.0334C210.716 28.1264 210.692 28.2182 210.641 28.2969C210.591 28.3754 210.521 28.4384 210.436 28.4772C210.35 28.5156 210.256 28.5293 210.163 28.5152C207.213 27.9929 204.236 27.623 201.246 27.4079ZM209.537 22.1229C205.746 21.0923 201.75 21.0772 197.953 22.0795C191.226 23.6226 184.854 26.427 179.175 30.3443C187.431 29.124 198.932 28.318 206.347 32.2487C204.196 30.3095 201.796 28.6652 199.21 27.3585C199.115 27.3107 199.042 27.2323 198.998 27.1359C198.955 27.0397 198.946 26.9315 198.973 26.8299C199.001 26.7281 199.062 26.6391 199.148 26.5772C199.234 26.5155 199.337 26.4846 199.442 26.4903C202.599 26.4871 205.748 26.7498 208.86 27.2766C206.085 25.7852 203.143 24.6223 200.098 23.8122C199.999 23.7886 199.909 23.732 199.845 23.6521C199.781 23.5717 199.745 23.4724 199.743 23.3697C199.743 23.2673 199.777 23.1674 199.839 23.0859C199.902 23.0046 199.99 22.9465 200.088 22.9205C203.197 22.302 206.368 22.0347 209.537 22.1229ZM35.8346 148.557C33.846 148.293 31.8778 147.892 29.9459 147.352C29.8468 147.328 29.7575 147.274 29.6952 147.193C29.6327 147.113 29.6001 147.013 29.6031 146.91C29.6057 146.809 29.644 146.711 29.7109 146.634C29.7779 146.557 29.8695 146.506 29.9699 146.489C32.7118 145.839 38.694 146.077 42.1294 144.847L50.5786 141.982C50.5974 141.97 50.6187 141.962 50.6413 141.958C50.6639 141.954 50.687 141.955 50.7087 141.96C50.7309 141.966 50.751 141.977 50.7685 141.992C50.7859 142.007 50.8004 142.024 50.8105 142.044C50.9558 142.352 50.5063 142.252 47.2385 144.789C45.1072 146.33 43.2162 148.18 41.6274 150.275C39.9324 152.457 38.3501 154.725 36.8873 157.069C36.7322 157.648 35.2276 157.7 36.4617 154.639C36.9381 153.502 37.471 152.389 38.0595 151.304C35.6679 152.213 33.2108 152.936 30.7084 153.47C30.6169 153.494 30.52 153.49 30.4312 153.458C30.3427 153.424 30.2658 153.365 30.2123 153.287C30.1583 153.209 30.1299 153.117 30.1304 153.022C30.1309 152.928 30.1608 152.836 30.2156 152.759C31.756 150.962 33.6745 149.528 35.8346 148.557ZM49.059 142.94C37.8094 147.06 42.6864 145.782 32.2315 147.013C34.0407 147.492 35.9104 147.702 37.7806 147.631L38.0396 147.514C38.5525 147.3 39.1301 148.158 38.1547 148.476C35.9073 149.437 33.8079 150.713 31.9216 152.265C34.3539 151.745 36.7168 150.941 38.9612 149.871C39.0504 149.81 39.1581 149.782 39.2652 149.794C39.3729 149.803 39.4731 149.851 39.5489 149.928C39.6241 150.005 39.6703 150.107 39.6787 150.215C39.6873 150.322 39.6584 150.428 39.5957 150.516C38.8061 151.864 38.0889 153.252 37.4459 154.676C40.3573 149.919 44.3319 145.902 49.059 142.94ZM52.7869 134.282C57.4834 129.859 63.3143 126.819 69.634 125.5C78.0756 123.977 79.8108 128.475 74.6013 134.316C70.2605 138.935 64.8816 142.455 58.9085 144.587C58.9458 146.718 58.6218 148.84 57.951 150.864C56.9317 152.659 46.6165 153.369 45.3635 152.868C45.2668 152.837 45.1798 152.781 45.1129 152.705C45.0461 152.628 45.001 152.535 44.9826 152.435C44.9083 151.94 45.4612 151.654 45.9741 151.439C48.7936 150.351 51.6832 149.454 54.6241 148.753L55.3471 145.514L54.1011 145.759C54.0243 145.759 53.9485 145.739 53.8823 145.699C53.8162 145.661 53.7624 145.603 53.7265 145.535L49.2282 137.981C49.2083 137.942 49.2033 137.897 49.215 137.853C49.2267 137.81 49.2532 137.774 49.2903 137.75C49.2903 137.75 49.592 137.396 50.189 136.791L46.8082 135.885C46.0268 136.792 40.8457 142.683 39.6397 142.856C39.5522 142.873 39.4613 142.869 39.3762 142.842C39.2901 142.818 39.2115 142.773 39.1472 142.711C39.0826 142.648 39.0342 142.572 39.0051 142.488C38.9763 142.403 38.9677 142.313 38.9807 142.225C39.1366 140.716 44.5238 132.047 46.5669 131.995C48.7208 132.365 50.8018 133.077 52.7317 134.102C52.7589 134.122 52.7789 134.15 52.7886 134.183C52.7988 134.215 52.7981 134.25 52.7869 134.282ZM58.4473 144.608C57.5434 144.914 56.6246 145.171 55.6937 145.379L55.1223 149.135C55.0448 149.424 55.0913 149.25 50.5452 150.762C49.1652 151.199 47.7554 151.669 46.7838 152.049C49.9316 152.028 53.0656 151.639 56.1217 150.891C56.3704 150.813 57.034 150.577 57.1785 150.347C57.8896 148.51 58.3176 146.574 58.4473 144.608ZM51.6183 136.016C50.565 136.933 49.8843 137.619 49.6225 137.901L54.1275 145.043C54.9161 144.882 55.7832 144.659 56.7045 144.389C54.7301 141.777 53.0261 138.971 51.6183 136.016ZM52.5407 134.505C50.6237 133.689 48.6009 133.147 46.5326 132.896C45.7944 132.946 43.8133 135.703 43.4509 136.206C42.282 137.84 41.2341 139.556 40.3148 141.341C41.934 139.935 46.6066 135.169 46.399 135.403C46.44 135.356 46.4932 135.322 46.553 135.305C46.6124 135.288 46.6756 135.29 46.7353 135.307L50.4507 136.51C51.0336 135.88 51.6988 135.252 52.5407 134.505ZM65.8682 127.344C60.6939 129.139 55.9448 131.977 51.9149 135.682C53.9531 138.336 55.6983 141.202 57.1195 144.231C62.3052 142.51 67.0939 139.773 71.204 136.177L65.8682 127.344ZM61.1126 131.26C60.6368 131.55 60.2228 131.93 59.8939 132.379C59.5654 132.828 59.3286 133.338 59.1972 133.879C59.0655 134.42 59.042 134.981 59.128 135.531C59.2136 136.081 59.407 136.609 59.697 137.085C59.987 137.561 60.3677 137.975 60.8175 138.303C61.2681 138.631 61.7781 138.868 62.3195 139.001C62.8611 139.132 63.4233 139.155 63.974 139.07C64.5245 138.985 65.0528 138.792 65.5287 138.503C66.4898 137.918 67.1788 136.976 67.4444 135.884C67.71 134.792 67.53 133.639 66.9444 132.678C66.3588 131.718 65.4155 131.029 64.3216 130.763C63.2281 130.497 62.0737 130.676 61.1126 131.26ZM66.4198 133.013C66.8706 133.818 66.9896 134.766 66.7511 135.656C66.5126 136.546 65.9355 137.308 65.1429 137.779C64.3819 138.18 63.4957 138.277 62.666 138.048C61.836 137.818 61.1241 137.283 60.6767 136.547C60.2286 135.813 60.0783 134.935 60.2563 134.094C60.4343 133.252 60.9267 132.511 61.6337 132.02C62.4046 131.535 63.3343 131.367 64.2269 131.552C65.1196 131.737 65.9058 132.261 66.4198 133.013ZM65.0626 133.828C65.2526 134.171 65.3376 134.563 65.3066 134.954C65.2753 135.344 65.1303 135.717 64.8887 136.026C64.6472 136.334 64.3198 136.565 63.9478 136.689C63.5753 136.814 63.1749 136.825 62.7959 136.724C62.4169 136.622 62.0758 136.412 61.8157 136.118C61.5559 135.825 61.3879 135.461 61.333 135.073C61.2778 134.685 61.3382 134.289 61.5072 133.936C61.6755 133.581 61.9446 133.285 62.2807 133.083C62.5109 132.945 62.7667 132.854 63.0332 132.816C63.2992 132.779 63.5703 132.796 63.8299 132.865C64.0894 132.935 64.3325 133.056 64.5442 133.221C64.7562 133.387 64.9324 133.593 65.0626 133.828Z" fill="#CECECE"/>
<path fill-rule="evenodd" clip-rule="evenodd" d="M161.337 19.175C161.2 18.9779 161.113 18.7515 161.08 18.5141C161.048 18.2767 161.073 18.0351 161.152 17.8093C161.231 17.5832 161.363 17.3791 161.536 17.2137C161.709 17.0482 161.919 16.9261 162.149 16.8574C162.379 16.7885 162.621 16.7749 162.857 16.8178C163.093 16.8607 163.316 16.9587 163.507 17.1039C163.698 17.2489 163.851 17.4369 163.955 17.6528C164.06 17.8686 164.111 18.1059 164.106 18.3454C164.055 18.5919 163.946 18.8227 163.789 19.0194C163.631 19.2159 163.429 19.3726 163.199 19.4762C162.97 19.58 162.719 19.628 162.467 19.6166C162.215 19.605 161.97 19.5341 161.75 19.4099C161.699 19.6028 160.835 21.6667 159.584 24.0196C162.265 24.7489 164.596 26.4155 166.152 28.716C166.195 28.6699 166.255 28.6417 166.318 28.6364C181.955 30.5517 182.186 35.9486 176.267 38.6431C169.614 41.6787 151.504 42.3474 142.596 38.6576C140.258 37.7211 136.811 35.5979 137.382 33.3109C138.168 30.3782 146.904 29.2245 147.255 29.153C149.368 26.3052 152.493 24.3749 155.988 23.7593C155.014 21.9062 154.164 19.3623 153.934 18.9077C152.054 19.3553 151.072 16.8382 152.617 16.0942C152.959 15.926 153.353 15.898 153.715 16.0161C154.038 16.0361 154.344 16.1642 154.586 16.3799C154.827 16.5954 154.988 16.8857 155.044 17.2042C155.1 17.5224 155.047 17.8502 154.893 18.1347C154.74 18.4191 154.495 18.6435 154.198 18.7717C154.723 19.4134 155.152 20.1275 155.473 20.8917C157.355 24.9942 155.309 23.205 158.82 23.8563C159.383 22.1627 160.234 20.579 161.337 19.175ZM146.781 29.6051C144.815 29.9882 138.406 31.4968 137.967 33.4469C137.796 34.0835 138.186 34.8704 139.06 35.7042C145.212 41.4885 168.221 41.1607 175.772 37.7867C180.067 35.8979 180.429 33.0791 173.835 30.7954C171.289 29.9879 168.685 29.3731 166.046 28.9563C165.263 29.9459 158.25 37.4962 146.781 29.6051ZM143.619 33.6793C143.487 33.8354 143.39 34.0175 143.332 34.2135C143.275 34.4095 143.26 34.6157 143.288 34.8178C143.316 35.0202 143.386 35.2145 143.494 35.3884C143.601 35.562 143.744 35.7112 143.914 35.8262C144.087 35.9218 144.277 35.9824 144.473 36.0046C144.669 36.0268 144.868 36.01 145.058 35.9552C145.248 35.9005 145.424 35.8084 145.579 35.685C145.733 35.5617 145.861 35.4091 145.956 35.236C146.163 34.9267 146.237 34.5478 146.164 34.1831C146.091 33.8183 145.876 33.4975 145.566 33.2912C145.256 33.0848 144.877 33.0096 144.512 33.0824C144.147 33.1553 143.826 33.37 143.619 33.6793ZM145.348 33.5637C146.095 34.1773 145.101 35.5654 144.352 35.1165C143.603 34.6676 144.468 33.1416 145.348 33.5637ZM158.972 36.0356C158.863 35.8972 158.724 35.7855 158.566 35.7078C158.407 35.6303 158.234 35.5891 158.057 35.5878C157.881 35.586 157.706 35.6238 157.547 35.6983C157.387 35.7731 157.246 35.8824 157.134 36.0186C156.893 36.3248 156.774 36.7092 156.8 37.098C156.826 37.4866 156.995 37.8522 157.274 38.1241C157.405 38.2632 157.565 38.3712 157.744 38.4404C157.922 38.5096 158.113 38.5379 158.304 38.5232C158.494 38.5088 158.679 38.452 158.845 38.3572C159.01 38.2621 159.153 38.131 159.261 37.9739C159.458 37.6714 159.537 37.3074 159.484 36.9506C159.431 36.5935 159.249 36.268 158.972 36.0356ZM158.746 36.2644C159.363 37.0502 158.499 38.2662 157.812 37.5857C157.125 36.9053 157.922 35.63 158.741 36.2836L158.746 36.2644ZM170.56 33.5158C170.475 33.3808 170.362 33.266 170.227 33.1811C170.093 33.0959 169.941 33.042 169.783 33.0234C169.624 33.005 169.464 33.0222 169.314 33.074C169.163 33.1258 169.026 33.2109 168.914 33.3228C168.681 33.5918 168.555 33.936 168.559 34.2912C168.563 34.6463 168.697 34.9878 168.935 35.2516C169.036 35.391 169.166 35.506 169.316 35.5889C169.467 35.6717 169.634 35.72 169.806 35.7306C169.977 35.7408 170.149 35.7127 170.309 35.6488C170.468 35.5847 170.612 35.4862 170.728 35.36C170.839 35.2285 170.924 35.0762 170.975 34.9119C171.027 34.7476 171.046 34.5744 171.031 34.403C171.015 34.2311 170.965 34.0644 170.885 33.9119C170.803 33.7597 170.693 33.6248 170.56 33.5158ZM170.338 33.7251C170.772 34.4206 170.078 35.3924 169.526 34.7482C168.973 34.104 169.649 33.127 170.338 33.7251ZM153.637 16.3055C153.885 16.3816 154.095 16.5471 154.227 16.77C154.358 16.9925 154.403 17.2563 154.35 17.5096C154.28 17.7304 154.128 17.9157 153.924 18.0269C153.721 18.138 153.483 18.1666 153.258 18.1064C153.14 18.0814 153.028 18.0333 152.928 17.965C152.828 17.8967 152.742 17.8096 152.676 17.7083C152.543 17.5038 152.496 17.2548 152.546 17.016C152.596 16.7771 152.74 16.5681 152.944 16.4348C153.149 16.3015 153.398 16.255 153.637 16.3055ZM162.635 16.9587C162.882 17.0348 163.092 17.2003 163.224 17.4231C163.356 17.6457 163.4 17.9095 163.347 18.1628C163.278 18.3836 163.125 18.5689 162.921 18.6801C162.718 18.7912 162.48 18.8198 162.256 18.7595C162.125 18.7503 161.997 18.7132 161.882 18.6505C161.766 18.5879 161.665 18.5013 161.586 18.3965C161.507 18.2917 161.451 18.1712 161.422 18.0431C161.393 17.9149 161.393 17.7822 161.419 17.6538C161.446 17.5252 161.5 17.4041 161.578 17.2983C161.656 17.1926 161.756 17.1047 161.87 17.0407C161.985 16.9766 162.112 16.9378 162.243 16.9271C162.374 16.9162 162.506 16.9336 162.63 16.978L162.635 16.9587ZM232.304 138.296C233.66 136.861 235.492 135.969 237.46 135.785C239.427 135.601 241.395 136.138 242.996 137.296C244.596 138.454 245.721 140.154 246.16 142.078C246.6 144.003 246.323 146.021 245.382 147.756C247.853 149.898 250.131 152.252 252.193 154.792C253.044 156.095 252.642 156.98 250.688 156.312C247.316 155.079 244.071 153.516 241.005 151.649C239.731 152.141 238.355 152.305 237.002 152.126C235.649 151.946 234.362 151.43 233.26 150.624C232.157 149.818 231.276 148.748 230.698 147.513C230.117 146.279 229.857 144.918 229.942 143.557C228.259 142.113 222.481 136.863 222.597 134.806C222.653 134.056 223.436 133.914 224.191 134.034C227.118 134.985 229.86 136.426 232.304 138.296ZM245.119 148.12C244.391 149.33 243.359 150.329 242.126 151.019C245.155 152.844 248.345 154.391 251.655 155.64C250.936 153.918 246.46 149.451 245.119 148.12ZM230.56 144.033C230.583 145.203 230.874 146.351 231.414 147.39C231.953 148.429 232.725 149.33 233.668 150.022C234.612 150.716 235.703 151.182 236.857 151.386C238.01 151.589 239.194 151.524 240.319 151.197C236.893 149.054 233.63 146.659 230.56 144.033ZM241.574 150.685C243.255 149.841 244.565 148.407 245.256 146.659C245.946 144.91 245.967 142.968 245.315 141.204C244.982 140.246 244.456 139.367 243.772 138.619C243.085 137.871 242.256 137.27 241.33 136.854C240.405 136.438 239.403 136.214 238.39 136.197C237.375 136.18 236.368 136.371 235.43 136.756C234.173 137.246 233.069 138.058 232.228 139.11C231.385 140.162 230.837 141.418 230.635 142.75C234.062 145.685 237.72 148.339 241.574 150.685ZM232.008 138.63C230.702 137.784 224.89 134.283 223.513 134.865C223.585 136.374 228.99 141.317 230.278 142.303C230.524 140.949 231.119 139.682 232.008 138.63ZM60.0875 220.008C62.0099 222.164 64.1072 224.157 66.3584 225.968C66.3812 225.983 66.4082 225.989 66.4346 225.987C66.4615 225.984 66.4866 225.972 66.5059 225.953C66.5254 225.934 66.5379 225.91 66.5416 225.883C66.5454 225.856 66.5398 225.829 66.526 225.807C64.6002 223.654 62.5029 221.661 60.2551 219.846C60.2327 219.831 60.2055 219.826 60.1791 219.827C60.152 219.83 60.1268 219.843 60.1075 219.861C60.0886 219.879 60.0756 219.904 60.0722 219.931C60.0685 219.958 60.0736 219.985 60.0875 220.008ZM63.5948 39.3881C64.8458 34.7191 66.295 30.3926 66.2433 30.5855C66.2663 30.5503 66.2999 30.5232 66.3393 30.5082C66.3787 30.4932 66.4218 30.4912 66.4625 30.5022C66.5033 30.5131 66.5392 30.5362 66.5658 30.5689C66.5925 30.6016 66.608 30.6419 66.6103 30.6839C66.233 32.0923 66.1481 33.4137 64.42 39.9401C66.0965 39.3948 67.8009 38.9402 69.5264 38.5787C69.5501 38.5716 69.5749 38.5692 69.5995 38.5713C69.6244 38.5738 69.6485 38.581 69.6703 38.5925C69.6919 38.6043 69.7114 38.62 69.7273 38.6393C69.743 38.6582 69.7548 38.6802 69.762 38.7039C69.7692 38.7276 69.772 38.7524 69.7694 38.7773C69.7674 38.8016 69.7599 38.8255 69.7483 38.8476C69.7369 38.8694 69.7208 38.8887 69.7019 38.9043C69.6826 38.9202 69.6606 38.932 69.6368 38.9392C68.129 39.621 66.5852 40.2221 65.0132 40.7401C67.3866 43.0096 67.8383 43.5649 68.9542 44.7324C70.07 45.8999 70.0893 45.9051 69.9411 46.0721C69.7928 46.2392 69.7169 46.1361 68.5493 45.1616C67.3818 44.187 66.5772 43.5579 64.0892 41.1749C62.1092 48.5643 60.9147 51.863 60.9664 51.6701C60.9434 51.7053 60.9098 51.7324 60.8704 51.7474C60.831 51.7624 60.7883 51.7645 60.7475 51.7535C60.7068 51.7426 60.6705 51.7194 60.6438 51.6867C60.6172 51.654 60.6017 51.6137 60.5994 51.5717C60.9716 50.1826 61.0268 48.8946 63.043 41.3701C61.2686 41.9636 59.4629 42.46 57.6338 42.8571C57.61 42.8643 57.5852 42.8671 57.5606 42.8646C57.5361 42.8622 57.512 42.855 57.4903 42.8435C57.4682 42.8316 57.4487 42.8158 57.4332 42.7966C57.4175 42.7778 57.4054 42.7557 57.3982 42.732C57.391 42.7082 57.3886 42.6835 57.391 42.659C57.3931 42.6344 57.4003 42.6103 57.4122 42.5883C57.4237 42.5666 57.4394 42.5471 57.4586 42.5316C57.4776 42.5156 57.4996 42.5039 57.5233 42.4967C59.3779 41.6604 61.2802 40.9339 63.2204 40.3217C61.8882 39.0342 61.4686 38.5909 60.4339 37.5072C59.3991 36.4235 59.0555 36.0832 59.2089 35.8969C59.2526 35.88 59.3004 35.8774 59.3457 35.8895C59.3906 35.9016 59.431 35.9278 59.4601 35.9642C61.6512 37.5232 62.8778 38.741 63.5948 39.3881Z" fill="#CECECE"/>
</svg>
