<svg width="352" height="329" viewBox="0 0 352 329" fill="none" xmlns="http://www.w3.org/2000/svg">
<path fill-rule="evenodd" clip-rule="evenodd" d="M91.7617 293.957C92.7617 295.689 93.1194 297.469 92.5132 297.819C91.907 298.169 90.5573 297.031 89.5273 295.247C88.4973 293.463 88.1796 291.753 88.8032 291.393C89.4267 291.033 90.7417 292.19 91.7617 293.957ZM72.3111 158.148C71.8781 158.398 68.4545 160.028 63.7541 162.927C63.1132 163.297 61.0008 164.678 61.0008 164.678C61.0008 164.678 60.9996 164.956 61.1208 164.886C61.2421 164.816 63.3632 163.73 64.0141 163.377C68.0578 161.181 72.6043 158.256 72.4311 158.356C72.4585 158.34 72.4782 158.314 72.4872 158.283C72.4945 158.252 72.4909 158.219 72.4751 158.192C72.4591 158.164 72.4323 158.145 72.4024 158.136C72.3707 158.128 72.3385 158.132 72.3111 158.148ZM303.222 121.017C303.883 123.523 304.863 128.06 303.879 130.476C303.843 130.564 303.779 130.638 303.697 130.685C303.615 130.733 303.52 130.755 303.426 130.744C303.331 130.733 303.242 130.692 303.173 130.627C303.104 130.562 303.058 130.477 303.041 130.383C301.864 121.825 291.891 112.872 284.941 107.554C282.181 105.453 310.539 111.251 314.494 124.902C314.517 124.998 314.507 125.098 314.469 125.19C314.429 125.28 314.362 125.355 314.277 125.404C314.191 125.454 314.092 125.474 313.995 125.464C313.896 125.451 313.805 125.409 313.732 125.342C311.527 122.993 309.159 120.804 306.645 118.787C307.709 120.829 310.064 125.589 309.603 127.91C309.586 128.003 309.542 128.086 309.478 128.154C309.412 128.221 309.33 128.268 309.239 128.288C309.147 128.308 309.053 128.303 308.966 128.271C308.877 128.237 308.802 128.181 308.746 128.105C307.029 125.65 305.184 123.283 303.222 121.017ZM312.829 123.138C310.878 119.729 308.062 116.893 304.666 114.918C298.815 111.255 292.321 108.735 285.529 107.492C292.234 112.466 300.94 120.025 303.402 128.049C303.254 125.156 302.721 122.296 301.816 119.543C301.784 119.442 301.787 119.335 301.824 119.236C301.862 119.137 301.932 119.054 302.024 119.002C302.115 118.949 302.222 118.93 302.326 118.946C302.43 118.963 302.525 119.014 302.596 119.093C304.831 121.322 306.873 123.734 308.701 126.307C307.794 123.289 306.537 120.387 304.956 117.661C304.903 117.574 304.879 117.47 304.891 117.369C304.902 117.267 304.947 117.171 305.019 117.097C305.091 117.025 305.186 116.978 305.287 116.964C305.389 116.951 305.493 116.972 305.581 117.023C308.218 118.783 310.651 120.836 312.829 123.138ZM100.414 89.8227C99.1939 88.2301 98.0859 86.5546 97.1019 84.8066C97.0481 84.72 97.0237 84.6182 97.0367 84.5171C97.0494 84.4161 97.0972 84.3222 97.172 84.2517C97.2455 84.182 97.342 84.1397 97.4438 84.1326C97.5458 84.1253 97.6467 84.154 97.7293 84.2134C100.13 85.6911 104.193 90.0887 107.494 91.6468L115.5 95.5927C115.522 95.5973 115.542 95.6068 115.561 95.6196C115.58 95.6327 115.596 95.6496 115.607 95.6692C115.619 95.689 115.625 95.7108 115.627 95.7336C115.629 95.7567 115.627 95.7793 115.62 95.8005C115.505 96.1211 115.257 95.7327 111.149 95.2176C108.55 94.802 105.903 94.7739 103.295 95.1335C100.55 95.4799 97.8251 95.9662 95.1301 96.5913C94.6105 96.8913 93.5094 95.8643 96.55 94.5707C97.6923 94.1026 98.8577 93.6914 100.042 93.3396C97.7071 92.2919 95.4566 91.0668 93.3082 89.6758C93.2265 89.6281 93.1606 89.5569 93.1208 89.4711C93.0822 89.3847 93.0693 89.2888 93.0868 89.1956C93.1038 89.1022 93.149 89.0169 93.2164 88.9503C93.2838 88.8837 93.3701 88.8397 93.4632 88.8242C95.8251 88.6417 98.1982 88.9826 100.414 89.8227ZM113.747 95.1961C102.871 90.1591 107.226 92.7023 98.9586 86.1826C99.8988 87.8009 101.073 89.2713 102.446 90.543L102.712 90.6435C103.226 90.8546 103.027 91.8701 102.113 91.4053C99.8423 90.4965 97.4533 89.9157 95.0199 89.6805C97.1086 91.0322 99.3497 92.1334 101.695 92.9626C101.801 92.983 101.897 93.0391 101.965 93.1232C102.034 93.2062 102.071 93.3106 102.07 93.4187C102.069 93.5267 102.029 93.6313 101.959 93.7134C101.889 93.7953 101.794 93.8501 101.687 93.8681C100.174 94.2639 98.6834 94.7393 97.2205 95.2921C102.649 93.9839 108.305 93.951 113.747 95.1961ZM122.515 91.7039C128.97 91.8936 135.247 93.8644 140.652 97.3983C147.702 102.289 145.745 106.698 137.922 107.15C131.581 107.35 125.283 106.038 119.548 103.324C118.065 104.859 116.333 106.132 114.425 107.091C112.433 107.64 104.633 100.851 104.101 99.6101C104.055 99.5197 104.033 99.4185 104.04 99.3173C104.047 99.2159 104.081 99.118 104.139 99.0344C104.437 98.6312 105.031 98.8196 105.545 99.0306C108.31 100.254 110.99 101.661 113.567 103.244L116.372 101.463L115.317 100.756C115.262 100.702 115.223 100.634 115.205 100.559C115.185 100.485 115.188 100.406 115.211 100.332L117.378 91.8062C117.392 91.7641 117.42 91.7291 117.459 91.7065C117.498 91.684 117.542 91.6774 117.586 91.6862C117.586 91.6862 118.05 91.6494 118.901 91.6431L117.151 88.612C115.955 88.7017 108.118 89.2079 107.143 88.478C107.069 88.4277 107.008 88.3608 106.966 88.2819C106.923 88.2037 106.899 88.1161 106.897 88.0268C106.896 87.9369 106.916 87.8486 106.955 87.7687C106.995 87.6881 107.052 87.6182 107.124 87.5652C108.303 86.6073 118.253 84.2808 119.735 85.6882C120.996 87.473 121.965 89.4475 122.604 91.5373C122.609 91.5711 122.603 91.6052 122.587 91.635C122.571 91.6651 122.546 91.6892 122.515 91.7039ZM119.207 103.013C118.351 102.591 117.519 102.123 116.712 101.613L113.649 103.867C113.389 104.017 113.545 103.927 109.259 101.783C107.973 101.116 106.643 100.452 105.686 100.035C107.928 102.245 110.42 104.185 113.112 105.816C113.343 105.937 113.979 106.239 114.245 106.179C116.049 105.381 117.723 104.313 119.207 103.013ZM120.461 92.1051C119.066 92.0096 118.099 92.0139 117.714 92.028L115.843 100.267C116.515 100.711 117.286 101.166 118.129 101.627C118.582 98.3819 119.364 95.1918 120.461 92.1051ZM122.183 91.6881C121.405 89.7552 120.358 87.9415 119.073 86.3014C118.515 85.8152 115.161 86.3659 114.549 86.4654C112.565 86.7955 110.608 87.2694 108.693 87.8832C110.835 88.0324 117.515 87.963 117.202 87.9817C117.265 87.977 117.327 87.9905 117.381 88.021C117.435 88.0512 117.478 88.0969 117.508 88.1515L119.285 91.629C120.143 91.5954 121.059 91.6211 122.183 91.6881ZM136.682 96.0417C131.751 93.6541 126.381 92.3054 120.907 92.0783C120.469 95.3974 119.674 98.6598 118.534 101.808C123.421 104.256 128.747 105.704 134.201 106.065L136.682 96.0417ZM130.545 95.4513C130.003 95.3197 129.441 95.2961 128.89 95.3815C128.34 95.4671 127.811 95.6607 127.335 95.9505C126.859 96.2401 126.445 96.6208 126.116 97.0709C125.787 97.5208 125.55 98.0307 125.419 98.5725C125.287 99.1143 125.263 99.6765 125.348 100.227C125.435 100.778 125.628 101.306 125.917 101.783C126.207 102.258 126.588 102.672 127.038 103.001C127.488 103.33 127.998 103.567 128.54 103.699C129.633 103.965 130.788 103.785 131.749 103.2C132.711 102.615 133.4 101.671 133.666 100.577C133.932 99.4838 133.752 98.3294 133.167 97.3678C132.582 96.4065 131.638 95.7172 130.545 95.4513ZM133.058 100.444C132.807 101.332 132.22 102.087 131.42 102.548C130.621 103.01 129.674 103.141 128.779 102.914C127.957 102.66 127.262 102.102 126.837 101.353C126.412 100.604 126.288 99.7217 126.492 98.8849C126.695 98.0482 127.211 97.3208 127.932 96.8511C128.654 96.3816 129.528 96.2047 130.375 96.3575C131.264 96.5588 132.041 97.097 132.541 97.8593C133.042 98.6213 133.227 99.5478 133.058 100.444ZM131.52 100.061C131.412 100.438 131.195 100.775 130.896 101.03C130.597 101.284 130.231 101.446 129.841 101.493C129.452 101.541 129.057 101.473 128.706 101.298C128.354 101.122 128.062 100.848 127.866 100.508C127.67 100.168 127.578 99.778 127.602 99.3862C127.626 98.9949 127.765 98.6187 128.001 98.3053C128.236 97.9915 128.559 97.7543 128.929 97.6235C129.299 97.4918 129.699 97.4723 130.08 97.5669C130.341 97.6318 130.586 97.7485 130.801 97.9103C131.016 98.0719 131.196 98.2753 131.33 98.508C131.465 98.7407 131.551 98.9983 131.583 99.265C131.616 99.5322 131.595 99.8028 131.52 100.061Z" fill="#CECECE"/>
<path fill-rule="evenodd" clip-rule="evenodd" d="M280.821 86.9771C280.864 86.7412 280.962 86.5189 281.107 86.328C281.253 86.1374 281.441 85.9837 281.657 85.8799C281.873 85.7758 282.111 85.7246 282.351 85.7299C282.59 85.7354 282.826 85.7974 283.037 85.9111C283.248 86.0247 283.429 86.1867 283.566 86.3837C283.702 86.5808 283.79 86.8078 283.823 87.0454C283.855 87.2829 283.83 87.5246 283.751 87.7509C283.672 87.9775 283.541 88.1819 283.367 88.3479C283.156 88.486 282.916 88.5724 282.665 88.6003C282.415 88.6279 282.161 88.5963 281.925 88.5071C281.689 88.4182 281.478 88.2749 281.308 88.0888C281.137 87.9024 281.014 87.6788 280.947 87.4358C280.774 87.5358 278.701 88.386 276.15 89.1664C277.53 91.5779 277.998 94.4053 277.47 97.1335C277.534 97.1318 277.595 97.1536 277.644 97.1948C287.349 109.605 283.69 113.587 277.595 111.31C270.739 108.756 257.455 96.426 253.766 87.5168C252.776 85.2017 251.84 81.2616 253.864 80.0469C256.497 78.5269 263.494 83.8867 263.793 84.0838C267.304 83.5619 270.882 84.4052 273.791 86.4403C274.414 84.4406 275.614 82.0392 275.773 81.5547C274.127 80.5425 275.215 78.0669 276.835 78.6327C277.195 78.755 277.494 79.0138 277.666 79.3534C277.881 79.5958 278.007 79.903 278.025 80.2264C278.043 80.5495 277.951 80.8689 277.765 81.1338C277.579 81.3985 277.309 81.5929 276.999 81.6858C276.69 81.7786 276.357 81.7643 276.056 81.645C275.973 82.4702 275.771 83.2792 275.457 84.0468C273.883 88.2809 273.702 85.5678 275.725 88.5109C277.323 87.7105 279.047 87.1915 280.821 86.9771ZM263.138 84.069C261.476 82.9502 255.874 79.4872 254.182 80.5565C253.61 80.8865 253.328 81.7188 253.356 82.9268C253.612 91.37 270.121 107.404 277.851 110.354C282.228 112.054 284.48 110.314 281.433 104.037C280.203 101.665 278.796 99.3893 277.225 97.2286C275.97 97.3756 265.662 97.7613 263.138 84.069ZM258.015 84.717C257.812 84.7343 257.614 84.7941 257.434 84.8925C257.255 84.9909 257.099 85.1262 256.975 85.2887C256.852 85.4519 256.764 85.6388 256.716 85.8378C256.67 86.0369 256.665 86.2436 256.704 86.4448C256.758 86.6345 256.85 86.8119 256.973 86.9662C257.096 87.1209 257.248 87.2493 257.421 87.3446C257.595 87.4403 257.785 87.5001 257.981 87.5219C258.178 87.5436 258.376 87.526 258.566 87.4706C258.931 87.3979 259.253 87.1826 259.459 86.8727C259.666 86.5628 259.741 86.1836 259.668 85.8188C259.594 85.4534 259.38 85.1323 259.07 84.9258C258.76 84.7192 258.381 84.6442 258.015 84.717ZM259.321 85.8576C259.414 86.8197 257.728 87.0998 257.516 86.2523C257.304 85.4048 258.996 84.9362 259.321 85.8576ZM267.208 97.2384C267.228 97.0632 267.209 96.8858 267.152 96.7191C267.095 96.552 267.001 96.4002 266.878 96.2747C266.754 96.1487 266.604 96.052 266.438 95.9919C266.272 95.9317 266.095 95.9095 265.919 95.9269C265.532 95.9733 265.176 96.1613 264.919 96.4547C264.662 96.7479 264.522 97.1261 264.527 97.5161C264.521 97.7069 264.558 97.8968 264.635 98.0718C264.712 98.2466 264.828 98.4018 264.973 98.5262C265.118 98.6507 265.289 98.7413 265.473 98.7912C265.658 98.8409 265.851 98.8488 266.039 98.8139C266.393 98.7394 266.707 98.5379 266.922 98.2479C267.137 97.9577 267.239 97.5987 267.208 97.2384ZM266.885 97.2402C266.766 98.233 265.293 98.4827 265.289 97.5152C265.285 96.5477 266.752 96.2088 266.868 97.2502L266.885 97.2402ZM277.189 103.647C277.225 103.492 277.226 103.33 277.191 103.175C277.156 103.019 277.087 102.874 276.988 102.749C276.889 102.624 276.764 102.523 276.621 102.453C276.477 102.383 276.32 102.347 276.161 102.346C275.806 102.372 275.474 102.527 275.225 102.781C274.976 103.035 274.829 103.371 274.81 103.726C274.783 103.896 274.794 104.07 274.841 104.235C274.889 104.4 274.974 104.553 275.087 104.681C275.201 104.81 275.343 104.911 275.501 104.979C275.659 105.046 275.83 105.078 276.002 105.071C276.174 105.057 276.341 105.008 276.494 104.929C276.648 104.849 276.784 104.74 276.894 104.608C277.005 104.475 277.088 104.322 277.138 104.157C277.189 103.992 277.206 103.818 277.189 103.647ZM276.884 103.638C276.699 104.437 275.519 104.634 275.585 103.788C275.65 102.942 276.82 102.728 276.884 103.638ZM277.406 79.5034C277.527 79.732 277.559 79.9977 277.494 80.2487C277.43 80.4993 277.274 80.7171 277.058 80.8591C276.852 80.9661 276.613 80.9894 276.39 80.9241C276.167 80.859 275.979 80.711 275.863 80.51C275.797 80.4087 275.751 80.2951 275.729 80.1762C275.707 80.0572 275.708 79.9351 275.733 79.8166C275.783 79.5776 275.927 79.3681 276.131 79.2348C276.336 79.1011 276.585 79.0545 276.825 79.1049C277.064 79.1551 277.273 79.2986 277.406 79.5034ZM283.309 86.3263C283.43 86.555 283.461 86.8207 283.397 87.0717C283.332 87.3222 283.177 87.5401 282.96 87.6821C282.754 87.7891 282.515 87.8124 282.292 87.7471C282.07 87.682 281.881 87.534 281.765 87.3329C281.679 87.2337 281.615 87.1173 281.578 86.9911C281.54 86.865 281.53 86.7326 281.548 86.6024C281.567 86.4722 281.612 86.3472 281.683 86.2364C281.753 86.1252 281.847 86.0309 281.957 85.959C282.067 85.8871 282.191 85.8394 282.321 85.8198C282.45 85.7998 282.583 85.808 282.71 85.8438C282.836 85.8795 282.954 85.9419 283.054 86.0271C283.154 86.1119 283.235 86.2176 283.291 86.3363L283.309 86.3263ZM246.662 221.453C248.638 221.396 250.566 222.059 252.088 223.321C253.61 224.58 254.621 226.352 254.934 228.303C255.246 230.254 254.838 232.252 253.785 233.924C252.733 235.598 251.108 236.83 249.214 237.393C249.446 240.656 249.39 243.933 249.049 247.187C248.729 248.712 247.817 249.053 246.909 247.199C245.396 243.942 244.208 240.543 243.361 237.054C242.112 236.501 241.022 235.645 240.192 234.561C239.361 233.478 238.817 232.203 238.608 230.853C238.399 229.503 238.533 228.123 238.998 226.84C239.462 225.556 240.242 224.409 241.266 223.506C241.097 221.294 240.728 213.494 242.267 212.12C242.838 211.629 243.493 212.083 243.942 212.701C245.339 215.443 246.258 218.401 246.662 221.453ZM248.77 237.464C247.399 237.806 245.961 237.783 244.6 237.401C245.451 240.834 246.612 244.184 248.068 247.407C248.78 245.68 248.776 239.354 248.77 237.464ZM241.366 224.28C240.554 225.124 239.947 226.142 239.593 227.259C239.238 228.376 239.146 229.559 239.323 230.715C239.5 231.874 239.941 232.975 240.613 233.935C241.285 234.894 242.168 235.685 243.196 236.249C242.29 232.31 241.678 228.309 241.366 224.28ZM244.446 236.774C246.233 237.365 248.175 237.276 249.902 236.527C251.629 235.777 253.019 234.418 253.807 232.708C254.25 231.795 254.501 230.801 254.546 229.788C254.59 228.773 254.429 227.762 254.069 226.813C253.709 225.864 253.159 224.998 252.454 224.27C251.748 223.54 250.901 222.963 249.964 222.572C248.729 222.031 247.372 221.825 246.032 221.975C244.691 222.124 243.414 222.625 242.327 223.425C242.673 227.925 243.382 232.389 244.446 236.774ZM246.216 221.48C245.892 219.958 244.26 213.372 242.873 212.81C241.856 213.928 242.179 221.247 242.392 222.856C243.525 222.071 244.843 221.595 246.216 221.48ZM66.9696 157.536C66.8027 160.421 66.8744 163.314 67.1842 166.188C67.1899 166.214 67.205 166.237 67.2248 166.255C67.2461 166.272 67.2724 166.281 67.2995 166.281C67.3268 166.281 67.3528 166.273 67.3741 166.257C67.3958 166.241 67.411 166.217 67.4174 166.192C67.5798 163.306 67.5071 160.414 67.2028 157.54C67.1973 157.513 67.1819 157.49 67.1621 157.473C67.1409 157.456 67.1143 157.447 67.0872 157.446C67.0617 157.445 67.0342 157.454 67.0127 157.471C66.9914 157.487 66.9757 157.51 66.9696 157.536ZM197.364 32.1849C201.555 29.7649 205.644 27.7274 205.471 27.8274C205.512 27.8188 205.555 27.8234 205.594 27.8406C205.632 27.8578 205.664 27.8869 205.685 27.9234C205.706 27.9599 205.715 28.0018 205.711 28.0437C205.707 28.0857 205.689 28.1252 205.661 28.1565C204.397 28.8865 203.401 29.7617 197.556 33.159C199.129 33.9582 200.656 34.8414 202.133 35.8054C202.155 35.8171 202.174 35.8329 202.19 35.8518C202.206 35.8712 202.218 35.8933 202.225 35.9169C202.232 35.9405 202.234 35.9655 202.232 35.9904C202.23 36.0148 202.223 36.0387 202.211 36.0606C202.199 36.0825 202.184 36.102 202.164 36.1178C202.145 36.1336 202.123 36.1452 202.099 36.1526C202.076 36.1599 202.051 36.1622 202.026 36.1599C202.001 36.1575 201.978 36.1503 201.956 36.1386C200.406 35.5552 198.888 34.8892 197.41 34.1445C197.481 37.4287 197.408 38.141 197.37 39.7561C197.333 41.3712 197.343 41.3885 197.119 41.4019C196.896 41.4153 196.915 41.2887 196.78 39.7736C196.644 38.2585 196.52 37.2444 196.448 33.799C189.814 37.629 186.633 39.1192 186.806 39.0192C186.765 39.0279 186.722 39.0233 186.684 39.006C186.645 38.9888 186.613 38.9601 186.592 38.9235C186.571 38.887 186.562 38.8449 186.566 38.8029C186.571 38.7609 186.588 38.7214 186.616 38.6901C187.863 37.9701 188.815 37.0976 195.57 33.1976C193.894 32.3632 192.265 31.438 190.69 30.4261C190.668 30.4143 190.649 30.3987 190.633 30.3796C190.617 30.3605 190.605 30.3384 190.598 30.3149C190.591 30.2909 190.588 30.266 190.591 30.2414C190.593 30.217 190.6 30.1928 190.612 30.1709C190.624 30.149 190.64 30.1298 190.659 30.1142C190.678 30.0982 190.7 30.0863 190.724 30.0792C190.747 30.0719 190.772 30.0692 190.797 30.0718C190.821 30.0739 190.845 30.0811 190.867 30.0929C192.771 30.812 194.632 31.6427 196.438 32.581C196.407 30.7281 196.424 30.1177 196.46 28.6192C196.495 27.1207 196.493 26.637 196.734 26.6136C196.776 26.6325 196.812 26.6644 196.835 26.705C196.859 26.7454 196.869 26.7925 196.864 26.8387C197.309 29.4911 197.315 31.2202 197.364 32.1849Z" fill="#CECECE"/>
</svg>
